<?xml version="1.0" encoding="UTF-8"?>
<!DOCTYPE svg PUBLIC "-//W3C//DTD SVG 1.1//EN" "http://www.w3.org/Graphics/SVG/1.1/DTD/svg11.dtd">
<svg xmlns="http://www.w3.org/2000/svg" version="1.1" width="972px" height="374px" style="shape-rendering:geometricPrecision; text-rendering:geometricPrecision; image-rendering:optimizeQuality; fill-rule:evenodd; clip-rule:evenodd" xmlns:xlink="http://www.w3.org/1999/xlink">
<g><path style="opacity:1" fill="#61a067" d="M 57.5,-0.5 C 58.1667,-0.5 58.8333,-0.5 59.5,-0.5C 61.02,2.71986 62.3533,6.05319 63.5,9.5C 61.8007,9.47291 60.4674,8.80624 59.5,7.5C 59.8432,5.51676 59.1765,4.18342 57.5,3.5C 57.5,2.16667 57.5,0.833333 57.5,-0.5 Z"/></g>
<g><path style="opacity:1" fill="#393939" d="M 292.5,23.5 C 344.324,21.1985 380.157,43.8652 400,91.5C 412.751,142.599 396.918,182.099 352.5,210C 320.496,225.305 288.496,225.305 256.5,210C 213.088,183.131 196.921,144.631 208,94.5C 222.399,54.2542 250.566,30.5876 292.5,23.5 Z M 259.5,84.5 C 278.145,82.3962 290.645,90.0629 297,107.5C 298.951,113.346 299.785,119.346 299.5,125.5C 280.833,125.5 262.167,125.5 243.5,125.5C 244.71,144.286 254.71,152.453 273.5,150C 279.869,148.465 284.202,144.631 286.5,138.5C 290.459,137.34 294.459,137.173 298.5,138C 293.31,153.109 282.643,160.609 266.5,160.5C 245.897,159.733 234.397,149.066 232,128.5C 229.338,106.111 238.505,91.4445 259.5,84.5 Z M 305.5,85.5 C 310.64,84.5119 315.974,84.1786 321.5,84.5C 327.085,93.4242 333.085,102.091 339.5,110.5C 346.559,102.714 352.892,94.3809 358.5,85.5C 363.6,84.2001 368.6,84.2001 373.5,85.5C 364.854,96.7648 356.187,108.098 347.5,119.5C 357.223,132.875 366.89,146.208 376.5,159.5C 371.695,160.487 366.695,160.821 361.5,160.5C 354.41,149.983 347.076,139.649 339.5,129.5C 332.305,139.529 325.305,149.696 318.5,160C 313.5,160.667 308.5,160.667 303.5,160C 312.839,146.983 322.172,133.983 331.5,121C 328.798,116.432 325.965,111.932 323,107.5C 316.922,100.267 311.089,92.9341 305.5,85.5 Z"/></g>
<g><path style="opacity:1" fill="#5ab45d" d="M 57.5,3.5 C 59.1765,4.18342 59.8432,5.51676 59.5,7.5C 60.3426,21.4823 60.6759,35.4823 60.5,49.5C 60.6932,61.1969 60.1932,72.8636 59,84.5C 58.5036,78.0194 57.3369,71.686 55.5,65.5C 54.5,65.5 53.5,65.5 52.5,65.5C 53.0567,59.6064 51.5567,54.2731 48,49.5C 47.8184,46.7737 47.3184,44.1071 46.5,41.5C 43.8136,38.1252 41.6469,34.4585 40,30.5C 39.7508,31.624 39.2508,32.624 38.5,33.5C 37.7025,33.0431 37.3691,32.3764 37.5,31.5C 38.1667,28.8333 38.8333,26.1667 39.5,23.5C 44.1161,18.0525 49.2827,13.0525 55,8.5C 55.3736,6.50869 56.207,4.84203 57.5,3.5 Z"/></g>
<g><path style="opacity:1" fill="#539b62" d="M 64.5,11.5 C 68.4632,17.039 73.1298,22.039 78.5,26.5C 80.7686,29.3852 82.7686,32.3852 84.5,35.5C 82.7179,34.2804 80.7179,33.6138 78.5,33.5C 77.838,27.518 74.5047,24.1847 68.5,23.5C 67.1667,19.5 65.8333,15.5 64.5,11.5 Z"/></g>
<g><path style="opacity:1" fill="#73d9f3" d="M 565.5,51.5 C 563.334,51.4211 561.334,50.7545 559.5,49.5C 557.61,50.6123 555.61,51.4456 553.5,52C 555.16,53.4877 556.16,55.321 556.5,57.5C 549.6,52.6208 542.6,47.7875 535.5,43C 531.389,42.0617 527.389,40.895 523.5,39.5C 520.865,40.5477 518.198,41.5477 515.5,42.5C 515.176,45.7719 513.842,48.7719 511.5,51.5C 511.5,49.5 511.5,47.5 511.5,45.5C 510.167,45.5 508.833,45.5 507.5,45.5C 506.521,49.4736 505.521,53.4736 504.5,57.5C 503.682,54.8929 503.182,52.2263 503,49.5C 501.114,63.1508 501.28,76.8175 503.5,90.5C 502.311,91.4287 500.978,91.762 499.5,91.5C 500.537,89.3452 501.203,87.0119 501.5,84.5C 499.176,72.5209 499.01,60.5209 501,48.5C 502.816,35.679 510.149,29.3457 523,29.5C 528.374,29.2186 533.541,30.0519 538.5,32C 548.247,37.5173 557.247,44.0173 565.5,51.5 Z"/></g>
<g><path style="opacity:1" fill="#49ac50" d="M 60.5,49.5 C 61.4985,87.3297 61.8318,125.33 61.5,163.5C 61.5,165.5 61.5,167.5 61.5,169.5C 61.1667,169.5 60.8333,169.5 60.5,169.5C 60.6664,161.493 60.4997,153.493 60,145.5C 59.6667,147.167 59.3333,148.833 59,150.5C 58.7944,138.102 57.961,125.769 56.5,113.5C 55.0222,113.762 53.6888,113.429 52.5,112.5C 51.4229,110.271 50.7563,107.937 50.5,105.5C 49.5,105.5 48.5,105.5 47.5,105.5C 46.2688,97.561 44.9355,89.561 43.5,81.5C 42.1667,81.5 40.8333,81.5 39.5,81.5C 39.665,78.1501 39.4983,74.8168 39,71.5C 36.8148,67.0982 35.3148,62.4315 34.5,57.5C 31.6035,57.8747 28.9368,57.3747 26.5,56C 28.1726,52.9311 30.5059,50.4311 33.5,48.5C 33.1667,47.5 32.5,46.8333 31.5,46.5C 24.8766,46.1348 20.8766,49.1348 19.5,55.5C 17.7773,57.78 17.1107,60.4467 17.5,63.5C 16.1667,63.5 14.8333,63.5 13.5,63.5C 15.6588,57.8489 18.3255,52.5156 21.5,47.5C 23.1417,45.9192 25.1417,45.2525 27.5,45.5C 27.1413,40.5671 29.1413,37.2337 33.5,35.5C 33.5,34.1667 33.5,32.8333 33.5,31.5C 34.8333,31.5 36.1667,31.5 37.5,31.5C 37.3691,32.3764 37.7025,33.0431 38.5,33.5C 39.2508,32.624 39.7508,31.624 40,30.5C 41.6469,34.4585 43.8136,38.1252 46.5,41.5C 47.3184,44.1071 47.8184,46.7737 48,49.5C 51.5567,54.2731 53.0567,59.6064 52.5,65.5C 53.5,65.5 54.5,65.5 55.5,65.5C 57.3369,71.686 58.5036,78.0194 59,84.5C 60.1932,72.8636 60.6932,61.1969 60.5,49.5 Z"/></g>
<g><path style="opacity:0.239" fill="#98b2a3" d="M 87.5,39.5 C 88.8333,39.5 89.5,40.1667 89.5,41.5C 89.5,40.1667 88.8333,39.5 87.5,39.5 Z"/></g>
<g><path style="opacity:1" fill="#78d9f2" d="M 621.5,31.5 C 613.923,30.9203 606.59,31.9203 599.5,34.5C 606.167,36.5 612.833,38.5 619.5,40.5C 621.611,43.6112 623.278,46.9446 624.5,50.5C 623.626,52.7466 623.292,55.0799 623.5,57.5C 622.623,52.3629 620.956,47.3629 618.5,42.5C 615.804,41.4424 613.137,40.4424 610.5,39.5C 607.367,40.8609 604.033,41.6942 600.5,42C 592.592,46.9935 584.925,52.1602 577.5,57.5C 576.665,56.0568 575.332,55.0568 573.5,54.5C 574.689,53.5713 576.022,53.238 577.5,53.5C 577.5,52.1667 577.5,50.8333 577.5,49.5C 575.712,49.2148 574.045,49.5481 572.5,50.5C 570.306,53.8231 567.973,54.1564 565.5,51.5C 567.783,51.3921 569.783,50.5588 571.5,49C 579.873,41.4743 589.207,35.3077 599.5,30.5C 606.458,28.1955 613.458,28.0288 620.5,30C 621.056,30.3826 621.389,30.8826 621.5,31.5 Z"/></g>
<g><path style="opacity:1" fill="#68ad6b" d="M 39.5,23.5 C 38.8333,26.1667 38.1667,28.8333 37.5,31.5C 36.1667,31.5 34.8333,31.5 33.5,31.5C 33.5,32.8333 33.5,34.1667 33.5,35.5C 29.1413,37.2337 27.1413,40.5671 27.5,45.5C 25.1417,45.2525 23.1417,45.9192 21.5,47.5C 26.0396,38.4281 32.0396,30.4281 39.5,23.5 Z"/></g>
<g><path style="opacity:1" fill="#53965e" d="M 89.5,41.5 C 93.3308,46.4888 96.6641,51.8222 99.5,57.5C 96.0563,54.6491 93.0563,51.3158 90.5,47.5C 89.5344,45.604 89.2011,43.604 89.5,41.5 Z"/></g>
<g><path style="opacity:1" fill="#89d8ed" d="M 621.5,31.5 C 624.692,32.5141 627.192,34.5141 629,37.5C 635.213,53.2863 636.047,69.2863 631.5,85.5C 633.43,70.6641 632.597,55.9975 629,41.5C 627.707,38.3728 625.54,36.0395 622.5,34.5C 621.873,33.5832 621.539,32.5832 621.5,31.5 Z"/></g>
<g><path style="opacity:1" fill="#343434" d="M 888.5,59.5 C 893.488,61.7471 898.322,64.4138 903,67.5C 903.667,92.1667 903.667,116.833 903,141.5C 894.75,147.043 886.25,152.21 877.5,157C 875.833,157.667 874.167,157.667 872.5,157C 864.283,152.306 856.117,147.473 848,142.5C 847.333,131.5 847.333,120.5 848,109.5C 856.581,104.793 865.081,99.9599 873.5,95C 877.188,94.5874 880.354,95.7541 883,98.5C 883.383,97.944 883.883,97.6107 884.5,97.5C 885.495,85.011 885.829,72.3443 885.5,59.5C 886.5,59.5 887.5,59.5 888.5,59.5 Z M 874.5,115.5 C 877.461,116.883 880.294,118.55 883,120.5C 883.212,123.758 883.712,126.924 884.5,130C 876.201,138.846 870.201,137.513 866.5,126C 866.667,124.167 866.833,122.333 867,120.5C 869.544,118.733 872.044,117.066 874.5,115.5 Z"/></g>
<g><path style="opacity:0.635" fill="#6c6c6d" d="M 888.5,59.5 C 887.5,59.5 886.5,59.5 885.5,59.5C 885.829,72.3443 885.495,85.011 884.5,97.5C 884.333,84.4957 884.5,71.4957 885,58.5C 886.313,57.7129 887.48,58.0462 888.5,59.5 Z"/></g>
<g><path style="opacity:1" fill="#40a748" d="M 60.5,169.5 C 60.3232,176.134 59.8232,176.134 59,169.5C 58.4507,159.698 57.7841,150.032 57,140.5C 56.6667,140.167 56.3333,139.833 56,139.5C 55.8078,141.577 55.3078,143.577 54.5,145.5C 52.9294,143.029 51.9294,140.363 51.5,137.5C 50.1667,137.5 48.8333,137.5 47.5,137.5C 47.6657,133.154 47.499,128.821 47,124.5C 42.1637,110.544 37.3304,96.5439 32.5,82.5C 32.7093,81.914 33.0426,81.414 33.5,81C 32.1498,79.2817 30.9832,77.4484 30,75.5C 28.7497,69.2464 26.7497,63.2464 24,57.5C 23.7104,59.0441 23.0437,60.3774 22,61.5C 21.9977,58.9488 21.1644,56.9488 19.5,55.5C 20.8766,49.1348 24.8766,46.1348 31.5,46.5C 32.5,46.8333 33.1667,47.5 33.5,48.5C 30.5059,50.4311 28.1726,52.9311 26.5,56C 28.9368,57.3747 31.6035,57.8747 34.5,57.5C 35.3148,62.4315 36.8148,67.0982 39,71.5C 39.4983,74.8168 39.665,78.1501 39.5,81.5C 40.8333,81.5 42.1667,81.5 43.5,81.5C 44.9355,89.561 46.2688,97.561 47.5,105.5C 48.5,105.5 49.5,105.5 50.5,105.5C 50.7563,107.937 51.4229,110.271 52.5,112.5C 53.6888,113.429 55.0222,113.762 56.5,113.5C 57.961,125.769 58.7944,138.102 59,150.5C 59.3333,148.833 59.6667,147.167 60,145.5C 60.4997,153.493 60.6664,161.493 60.5,169.5 Z"/></g>
<g><path style="opacity:1" fill="#65b074" d="M 13.5,63.5 C 12.8275,69.4454 10.8275,74.7787 7.5,79.5C 8.29784,73.586 10.2978,68.2526 13.5,63.5 Z"/></g>
<g><path style="opacity:1" fill="#3a8f4f" d="M 103.5,65.5 C 107.586,73.0202 110.586,81.0202 112.5,89.5C 111.041,86.653 109.041,83.9863 106.5,81.5C 105.497,76.1569 104.497,70.8236 103.5,65.5 Z"/></g>
<g><path style="opacity:1" fill="#1f8b36" d="M 59.5,7.5 C 60.4674,8.80624 61.8007,9.47291 63.5,9.5C 64.3382,9.84171 64.6716,10.5084 64.5,11.5C 65.8333,15.5 67.1667,19.5 68.5,23.5C 74.5047,24.1847 77.838,27.518 78.5,33.5C 80.7179,33.6138 82.7179,34.2804 84.5,35.5C 86.2624,36.2623 87.2624,37.5956 87.5,39.5C 87.5,40.8333 88.1667,41.5 89.5,41.5C 89.2011,43.604 89.5344,45.604 90.5,47.5C 93.0563,51.3158 96.0563,54.6491 99.5,57.5C 101.341,59.8485 102.674,62.5152 103.5,65.5C 104.497,70.8236 105.497,76.1569 106.5,81.5C 109.041,83.9863 111.041,86.653 112.5,89.5C 112.348,94.281 113.014,98.9477 114.5,103.5C 114.747,104.713 115.414,105.38 116.5,105.5C 116.925,118.894 116.425,132.227 115,145.5C 113.69,134.992 113.023,124.325 113,113.5C 112.667,113.167 112.333,112.833 112,112.5C 111.437,118.341 110.27,118.674 108.5,113.5C 107.52,116.086 107.187,118.753 107.5,121.5C 106.167,121.5 104.833,121.5 103.5,121.5C 103.5,120.167 103.5,118.833 103.5,117.5C 95.5,117.5 87.5,117.5 79.5,117.5C 79.5,118.833 79.5,120.167 79.5,121.5C 76.8333,121.5 74.1667,121.5 71.5,121.5C 71.5,125.167 71.5,128.833 71.5,132.5C 70.1667,132.5 68.8333,132.5 67.5,132.5C 67.5,128.833 67.5,125.167 67.5,121.5C 66.1667,121.5 64.8333,121.5 63.5,121.5C 63.0391,135.665 62.3724,149.665 61.5,163.5C 61.8318,125.33 61.4985,87.3297 60.5,49.5C 60.6759,35.4823 60.3426,21.4823 59.5,7.5 Z"/></g>
<g><path style="opacity:1" fill="#76daf2" d="M 577.5,57.5 C 576.782,59.1368 576.616,60.8034 577,62.5C 582.781,68.4362 587.948,74.7695 592.5,81.5C 594.279,83.3435 596.612,84.0102 599.5,83.5C 606.713,84.6439 614.046,85.3106 621.5,85.5C 621.251,81.5422 621.918,77.8756 623.5,74.5C 623.766,78.5705 623.433,82.5705 622.5,86.5C 614.759,87.2314 607.092,87.2314 599.5,86.5C 600.729,87.2811 602.062,87.7811 603.5,88C 602.5,88.3333 601.5,88.6667 600.5,89C 602.904,89.1955 604.571,90.3622 605.5,92.5C 608.167,93.1667 610.833,93.8333 613.5,94.5C 614.77,95.2876 615.77,96.2876 616.5,97.5C 612.001,96.0799 607.334,95.0799 602.5,94.5C 603.043,97.0384 604.043,99.3718 605.5,101.5C 603.5,101.5 601.5,101.5 599.5,101.5C 598.833,98.8333 598.167,96.1667 597.5,93.5C 602.502,93.4782 602.835,92.1448 598.5,89.5C 597.065,91.4011 595.398,91.7345 593.5,90.5C 594.833,89.1667 596.167,87.8333 597.5,86.5C 594.5,85.5 591.5,84.5 588.5,83.5C 585.833,84.8333 583.167,86.1667 580.5,87.5C 578.382,87.2398 576.716,86.2398 575.5,84.5C 578.167,83.8333 580.833,83.1667 583.5,82.5C 581.257,81.5258 578.924,81.1924 576.5,81.5C 576.649,80.448 576.483,79.448 576,78.5C 573.611,75.0341 570.778,72.0341 567.5,69.5C 563.405,71.85 560.071,75.0166 557.5,79C 558.252,79.6708 558.586,80.5041 558.5,81.5C 557.022,81.762 555.689,81.4287 554.5,80.5C 558.12,75.2114 562.12,70.2114 566.5,65.5C 566.5,62.8333 566.5,60.1667 566.5,57.5C 568.5,59.5 570.5,61.5 572.5,63.5C 573.466,61.604 573.799,59.604 573.5,57.5C 574.833,57.5 576.167,57.5 577.5,57.5 Z M 576.5,81.5 C 570.5,81.5 564.5,81.5 558.5,81.5C 558.586,80.5041 558.252,79.6708 557.5,79C 560.071,75.0166 563.405,71.85 567.5,69.5C 570.778,72.0341 573.611,75.0341 576,78.5C 576.483,79.448 576.649,80.448 576.5,81.5 Z"/></g>
<g><path style="opacity:0.024" fill="#cbf5f8" d="M 592.5,81.5 C 595.388,80.9898 597.721,81.6565 599.5,83.5C 596.612,84.0102 594.279,83.3435 592.5,81.5 Z"/></g>
<g><path style="opacity:0.341" fill="#878787" d="M 321.5,84.5 C 315.974,84.1786 310.64,84.5119 305.5,85.5C 304.957,85.44 304.624,85.1067 304.5,84.5C 310.32,83.1843 315.987,83.1843 321.5,84.5 Z"/></g>
<g><path style="opacity:0.332" fill="#8a8a8a" d="M 373.5,85.5 C 368.6,84.2001 363.6,84.2001 358.5,85.5C 360.743,84.1883 363.41,83.5217 366.5,83.5C 369.167,83.8333 371.833,84.1667 374.5,84.5C 374.376,85.1067 374.043,85.44 373.5,85.5 Z"/></g>
<g><path style="opacity:1" fill="#69b178" d="M 7.5,79.5 C 7.5,80.1667 7.5,80.8333 7.5,81.5C 7.5,84.1667 7.5,86.8333 7.5,89.5C 5.72632,90.3696 4.39299,91.703 3.5,93.5C 4.53974,88.6629 5.87307,83.9962 7.5,79.5 Z"/></g>
<g><path style="opacity:1" fill="#26a03d" d="M 52.5,221.5 C 51.5416,221.047 50.7083,220.381 50,219.5C 49.6667,217.5 49.3333,215.5 49,213.5C 48.0805,213.07 47.2472,212.736 46.5,212.5C 47.6405,211.575 47.6405,210.741 46.5,210C 47.624,209.751 48.624,209.251 49.5,208.5C 48.6258,206.253 48.2924,203.92 48.5,201.5C 47.5,201.5 46.5,201.5 45.5,201.5C 45.0733,196.308 43.24,191.642 40,187.5C 39.8265,183.459 39.3265,179.459 38.5,175.5C 32.8885,166.951 29.5551,157.618 28.5,147.5C 27.0869,144.339 25.4203,141.339 23.5,138.5C 24.8647,136.249 24.5314,134.249 22.5,132.5C 24.3354,128.779 23.3354,126.446 19.5,125.5C 18.7981,120.094 16.9648,115.094 14,110.5C 13.5427,102.932 11.3761,95.9319 7.5,89.5C 7.5,86.8333 7.5,84.1667 7.5,81.5C 9.41673,80.5944 11.0834,79.2611 12.5,77.5C 13.3184,79.1083 13.9851,80.7749 14.5,82.5C 16.2853,82.7877 17.952,82.7877 19.5,82.5C 20.73,87.0241 22.0634,91.5241 23.5,96C 21.897,97.9066 22.2303,99.4066 24.5,100.5C 23.6906,102.071 23.3573,103.738 23.5,105.5C 25.1238,105.36 26.2904,106.027 27,107.5C 30.1161,115.87 32.6161,124.537 34.5,133.5C 35.3406,136.872 36.8406,139.872 39,142.5C 43.5921,157.797 48.2588,173.13 53,188.5C 53.6667,189.167 54.3333,189.833 55,190.5C 55.4986,194.152 55.6653,197.818 55.5,201.5C 53.8333,201.5 52.1667,201.5 50.5,201.5C 51.8552,206.558 53.5219,211.558 55.5,216.5C 54.1667,217.167 52.8333,217.833 51.5,218.5C 53.435,219.213 53.7683,220.213 52.5,221.5 Z"/></g>
<g><path style="opacity:1" fill="#189b38" d="M 7.5,89.5 C 11.3761,95.9319 13.5427,102.932 14,110.5C 16.9648,115.094 18.7981,120.094 19.5,125.5C 23.3354,126.446 24.3354,128.779 22.5,132.5C 24.5314,134.249 24.8647,136.249 23.5,138.5C 25.4203,141.339 27.0869,144.339 28.5,147.5C 29.5551,157.618 32.8885,166.951 38.5,175.5C 39.3265,179.459 39.8265,183.459 40,187.5C 43.24,191.642 45.0733,196.308 45.5,201.5C 46.5,201.5 47.5,201.5 48.5,201.5C 48.2924,203.92 48.6258,206.253 49.5,208.5C 48.624,209.251 47.624,209.751 46.5,210C 47.6405,210.741 47.6405,211.575 46.5,212.5C 47.2472,212.736 48.0805,213.07 49,213.5C 49.3333,215.5 49.6667,217.5 50,219.5C 50.7083,220.381 51.5416,221.047 52.5,221.5C 53.7574,222.623 53.4241,223.289 51.5,223.5C 48.6421,220.934 45.3088,218.934 41.5,217.5C 40.5084,217.672 39.8417,217.338 39.5,216.5C 38.9202,214.251 37.5869,212.585 35.5,211.5C 34.3284,209.026 33.6617,206.693 33.5,204.5C 31.9547,203.548 30.288,203.215 28.5,203.5C 27.8505,201.565 27.5172,199.565 27.5,197.5C 26.1667,197.5 24.8333,197.5 23.5,197.5C 23.5,197.167 23.5,196.833 23.5,196.5C 22.9015,191.616 20.5682,187.95 16.5,185.5C 16.7733,183.549 16.1066,182.049 14.5,181C 14.8333,180.667 15.1667,180.333 15.5,180C 14.1183,176.739 12.1183,173.906 9.5,171.5C 7.92606,169.898 7.25939,167.898 7.5,165.5C 7.3404,163.847 6.67373,162.514 5.5,161.5C 5.5,160.833 5.5,160.167 5.5,159.5C 5.40505,157.214 4.73838,155.214 3.5,153.5C 3.78472,150.171 3.11805,147.171 1.5,144.5C 1.5,144.167 1.5,143.833 1.5,143.5C 1.5,132.833 1.5,122.167 1.5,111.5C 1.5,110.833 1.5,110.167 1.5,109.5C 3.13566,105.79 3.80233,101.79 3.5,97.5C 3.5,96.1667 3.5,94.8333 3.5,93.5C 4.39299,91.703 5.72632,90.3696 7.5,89.5 Z"/></g>
<g><path style="opacity:1" fill="#67d8f6" d="M 621.5,31.5 C 621.539,32.5832 621.873,33.5832 622.5,34.5C 625.54,36.0395 627.707,38.3728 629,41.5C 632.597,55.9975 633.43,70.6641 631.5,85.5C 631.5,86.1667 631.5,86.8333 631.5,87.5C 630.265,89.017 630.265,90.6837 631.5,92.5C 635.179,93.5992 638.846,94.5992 642.5,95.5C 642.202,99.6008 643.868,102.267 647.5,103.5C 647.238,102.022 647.571,100.689 648.5,99.5C 649.872,101.868 651.872,103.534 654.5,104.5C 650.555,105.491 646.555,105.824 642.5,105.5C 639.285,104.893 636.285,103.726 633.5,102C 631.527,101.505 629.527,101.338 627.5,101.5C 627.435,104.428 626.768,107.095 625.5,109.5C 625.5,108.167 625.5,106.833 625.5,105.5C 623.5,105.5 621.5,105.5 619.5,105.5C 619.742,109.917 617.742,112.583 613.5,113.5C 614.517,108.769 615.85,104.103 617.5,99.5C 617.457,98.5836 617.124,97.9169 616.5,97.5C 615.77,96.2876 614.77,95.2876 613.5,94.5C 610.833,93.8333 608.167,93.1667 605.5,92.5C 604.571,90.3622 602.904,89.1955 600.5,89C 601.5,88.6667 602.5,88.3333 603.5,88C 602.062,87.7811 600.729,87.2811 599.5,86.5C 607.092,87.2314 614.759,87.2314 622.5,86.5C 623.433,82.5705 623.766,78.5705 623.5,74.5C 623.5,68.8333 623.5,63.1667 623.5,57.5C 623.292,55.0799 623.626,52.7466 624.5,50.5C 623.278,46.9446 621.611,43.6112 619.5,40.5C 612.833,38.5 606.167,36.5 599.5,34.5C 606.59,31.9203 613.923,30.9203 621.5,31.5 Z"/></g>
<g><path style="opacity:0.995" fill="#3a3a3a" d="M 260.5,94.5 C 275.737,93.6064 284.737,100.606 287.5,115.5C 272.818,115.833 258.152,115.499 243.5,114.5C 244.776,109.946 246.609,105.613 249,101.5C 252.514,98.4999 256.347,96.1666 260.5,94.5 Z"/></g>
<g><path style="opacity:1" fill="#373838" d="M 736.5,93.5 C 747.199,97.6709 757.366,103.004 767,109.5C 767.667,122.833 767.667,136.167 767,149.5C 766.333,150.167 765.667,150.833 765,151.5C 759.631,147.968 754.131,144.635 748.5,141.5C 747.865,134.192 747.198,126.859 746.5,119.5C 744.107,117.637 741.44,116.304 738.5,115.5C 735.458,116.773 732.624,118.439 730,120.5C 729.667,127.5 729.333,134.5 729,141.5C 723.75,144.541 718.583,147.708 713.5,151C 712.551,151.617 711.718,151.451 711,150.5C 710.333,136.833 710.333,123.167 711,109.5C 719.817,104.517 728.317,99.1838 736.5,93.5 Z"/></g>
<g><path style="opacity:1" fill="#7fdbf3" d="M 494.5,93.5 C 493.322,94.9986 491.655,95.9986 489.5,96.5C 495.742,97.5698 501.742,99.2364 507.5,101.5C 510.604,106.345 511.938,111.678 511.5,117.5C 509.213,113.903 507.713,109.903 507,105.5C 506.519,103.522 505.353,102.189 503.5,101.5C 494.799,104.866 486.466,108.866 478.5,113.5C 479.234,112.292 479.567,110.959 479.5,109.5C 483.335,108.996 483.335,107.996 479.5,106.5C 476.914,105.52 474.247,105.187 471.5,105.5C 475.218,101.81 479.551,98.8103 484.5,96.5C 487.55,94.4827 490.883,93.4827 494.5,93.5 Z"/></g>
<g><path style="opacity:1" fill="#64d8f8" d="M 511.5,51.5 C 509.983,55.5595 509.316,59.8929 509.5,64.5C 509.316,69.1071 509.983,73.4405 511.5,77.5C 511.5,78.1667 511.5,78.8333 511.5,79.5C 511.5,82.1667 511.5,84.8333 511.5,87.5C 521.04,88.0583 530.374,87.0583 539.5,84.5C 542.643,81.8567 545.977,79.5233 549.5,77.5C 550.167,74.8333 550.833,72.1667 551.5,69.5C 553.35,66.3988 555.683,63.5655 558.5,61C 557.915,59.6976 557.249,58.531 556.5,57.5C 556.16,55.321 555.16,53.4877 553.5,52C 555.61,51.4456 557.61,50.6123 559.5,49.5C 561.334,50.7545 563.334,51.4211 565.5,51.5C 567.973,54.1564 570.306,53.8231 572.5,50.5C 574.045,49.5481 575.712,49.2148 577.5,49.5C 577.5,50.8333 577.5,52.1667 577.5,53.5C 576.022,53.238 574.689,53.5713 573.5,54.5C 575.332,55.0568 576.665,56.0568 577.5,57.5C 576.167,57.5 574.833,57.5 573.5,57.5C 573.799,59.604 573.466,61.604 572.5,63.5C 570.5,61.5 568.5,59.5 566.5,57.5C 566.5,60.1667 566.5,62.8333 566.5,65.5C 562.12,70.2114 558.12,75.2114 554.5,80.5C 555.689,81.4287 557.022,81.762 558.5,81.5C 564.5,81.5 570.5,81.5 576.5,81.5C 578.924,81.1924 581.257,81.5258 583.5,82.5C 580.833,83.1667 578.167,83.8333 575.5,84.5C 576.716,86.2398 578.382,87.2398 580.5,87.5C 583.167,86.1667 585.833,84.8333 588.5,83.5C 591.5,84.5 594.5,85.5 597.5,86.5C 596.167,87.8333 594.833,89.1667 593.5,90.5C 595.398,91.7345 597.065,91.4011 598.5,89.5C 602.835,92.1448 602.502,93.4782 597.5,93.5C 598.167,96.1667 598.833,98.8333 599.5,101.5C 601.5,101.5 603.5,101.5 605.5,101.5C 607.692,103.705 609.026,106.371 609.5,109.5C 609.939,112.818 609.939,115.984 609.5,119C 611.238,124.334 612.904,124.5 614.5,119.5C 618.318,124.749 618.484,130.083 615,135.5C 614.667,134.833 614.333,134.167 614,133.5C 612.121,135.195 609.954,136.528 607.5,137.5C 606.833,137.167 606.167,136.833 605.5,136.5C 606.507,133.156 607.507,129.823 608.5,126.5C 608.36,124.97 607.693,123.97 606.5,123.5C 603.579,115.495 599.912,107.828 595.5,100.5C 592.326,98.506 589.66,96.1726 587.5,93.5C 587.389,92.8826 587.056,92.3826 586.5,92C 579.833,91.8333 573.167,91.6667 566.5,91.5C 559.465,91.5032 552.798,92.1699 546.5,93.5C 543.014,94.9525 539.347,95.6192 535.5,95.5C 535.5,96.8333 535.5,98.1667 535.5,99.5C 540.117,99.3573 540.784,101.024 537.5,104.5C 535.955,105.452 534.288,105.785 532.5,105.5C 532.643,103.738 532.309,102.071 531.5,100.5C 532.946,98.3821 533.613,96.0488 533.5,93.5C 529.37,93.4657 525.37,92.799 521.5,91.5C 521.5,92.8333 521.5,94.1667 521.5,95.5C 519.5,95.5 517.5,95.5 515.5,95.5C 515.232,97.099 515.566,98.4324 516.5,99.5C 518.207,104.38 520.207,109.046 522.5,113.5C 523.5,113.5 524.5,113.5 525.5,113.5C 525.5,112.167 525.5,110.833 525.5,109.5C 528.205,109.62 528.872,108.62 527.5,106.5C 528.689,105.571 530.022,105.238 531.5,105.5C 531.328,107.492 531.995,109.158 533.5,110.5C 532.5,111.167 531.5,111.833 530.5,112.5C 530.987,113.446 531.32,114.446 531.5,115.5C 529.607,118.618 528.274,121.951 527.5,125.5C 527.511,127.045 527.844,128.378 528.5,129.5C 534.55,139.233 540.216,149.233 545.5,159.5C 545.574,161.411 546.574,162.578 548.5,163C 560.162,163.5 571.829,163.667 583.5,163.5C 583.5,166.167 583.5,168.833 583.5,171.5C 585.199,171.34 586.866,171.506 588.5,172C 587.167,173 587.167,174 588.5,175C 585.423,176.985 583.756,179.818 583.5,183.5C 582.167,183.5 580.833,183.5 579.5,183.5C 578.561,186.969 576.894,190.135 574.5,193C 574.851,195.193 575.851,197.026 577.5,198.5C 576.278,200.909 576.945,202.742 579.5,204C 579.167,204.333 578.833,204.667 578.5,205C 579.448,205.483 580.448,205.649 581.5,205.5C 581.357,207.262 581.691,208.929 582.5,210.5C 582.167,210.833 581.833,211.167 581.5,211.5C 580.476,210.147 579.143,209.48 577.5,209.5C 572.955,203.948 567.955,198.615 562.5,193.5C 561.833,192.167 561.167,190.833 560.5,189.5C 557.668,187.636 554.668,186.303 551.5,185.5C 547.738,182.071 544.738,178.071 542.5,173.5C 542.67,172.178 542.337,171.011 541.5,170C 538.774,169.818 536.107,169.318 533.5,168.5C 538.015,168.246 540.015,165.913 539.5,161.5C 538.167,161.5 536.833,161.5 535.5,161.5C 535.5,162.833 535.5,164.167 535.5,165.5C 533.396,165.799 531.396,165.466 529.5,164.5C 530.375,162.227 532.042,161.227 534.5,161.5C 534.643,159.738 534.309,158.071 533.5,156.5C 527.427,150.02 523.761,142.354 522.5,133.5C 520.851,132.294 519.351,130.961 518,129.5C 517.843,126.28 518.343,123.113 519.5,120C 519.167,119.167 518.833,118.333 518.5,117.5C 517.571,118.689 517.238,120.022 517.5,121.5C 516.167,121.5 514.833,121.5 513.5,121.5C 513.843,119.517 513.176,118.183 511.5,117.5C 511.938,111.678 510.604,106.345 507.5,101.5C 501.742,99.2364 495.742,97.5698 489.5,96.5C 491.655,95.9986 493.322,94.9986 494.5,93.5C 495.635,91.7868 497.302,91.1201 499.5,91.5C 500.978,91.762 502.311,91.4287 503.5,90.5C 501.28,76.8175 501.114,63.1508 503,49.5C 503.182,52.2263 503.682,54.8929 504.5,57.5C 505.521,53.4736 506.521,49.4736 507.5,45.5C 508.833,45.5 510.167,45.5 511.5,45.5C 511.5,47.5 511.5,49.5 511.5,51.5 Z M 522.5,113.5 C 520.207,109.046 518.207,104.38 516.5,99.5C 517.848,97.5197 519.848,96.353 522.5,96C 525.863,95.3743 529.196,95.0409 532.5,95C 528.87,101.097 525.537,107.264 522.5,113.5 Z M 556.5,173.5 C 563.532,173.17 570.532,173.503 577.5,174.5C 574.479,178.518 571.146,182.184 567.5,185.5C 562.905,182.277 559.238,178.277 556.5,173.5 Z"/></g>
<g><path style="opacity:0.116" fill="#d8f8f8" d="M 587.5,93.5 C 573.833,93.5 560.167,93.5 546.5,93.5C 552.798,92.1699 559.465,91.5032 566.5,91.5C 573.167,91.6667 579.833,91.8333 586.5,92C 587.056,92.3826 587.389,92.8826 587.5,93.5 Z"/></g>
<g><path style="opacity:1" fill="#88daec" d="M 551.5,69.5 C 550.833,72.1667 550.167,74.8333 549.5,77.5C 545.977,79.5233 542.643,81.8567 539.5,84.5C 530.374,87.0583 521.04,88.0583 511.5,87.5C 511.5,84.8333 511.5,82.1667 511.5,79.5C 511.876,82.8937 513.709,85.227 517,86.5C 523.177,84.201 529.677,83.0343 536.5,83C 541.785,81.3221 545.452,77.8221 547.5,72.5C 548.852,71.4756 550.185,70.4756 551.5,69.5 Z"/></g>
<g><path style="opacity:0.624" fill="#a4e1ef" d="M 511.5,51.5 C 510.167,60.1667 510.167,68.8333 511.5,77.5C 509.983,73.4405 509.316,69.1071 509.5,64.5C 509.316,59.8929 509.983,55.5595 511.5,51.5 Z"/></g>
<g><path style="opacity:1" fill="#333334" d="M 971.5,109.5 C 971.5,112.833 971.5,116.167 971.5,119.5C 966.074,123.879 960.074,127.213 953.5,129.5C 954.069,125.671 953.402,122.337 951.5,119.5C 948.886,118.193 946.22,116.86 943.5,115.5C 940.42,116.789 937.586,118.455 935,120.5C 934.175,124.211 934.341,127.878 935.5,131.5C 944.267,136.388 952.934,141.555 961.5,147C 955.664,150.752 949.664,154.252 943.5,157.5C 933.924,152.798 924.757,147.464 916,141.5C 915.333,130.833 915.333,120.167 916,109.5C 925.085,104.04 934.251,98.7071 943.5,93.5C 952.893,98.8591 962.226,104.192 971.5,109.5 Z"/></g>
<g><path style="opacity:1" fill="#428b54" d="M 112.5,89.5 C 114.889,94.4432 116.223,99.7766 116.5,105.5C 115.414,105.38 114.747,104.713 114.5,103.5C 113.014,98.9477 112.348,94.281 112.5,89.5 Z"/></g>
<g><path style="opacity:1" fill="#609855" d="M 823.5,103.5 C 827.976,104.657 831.642,106.99 834.5,110.5C 833.833,110.5 833.5,110.833 833.5,111.5C 831.224,114.792 828.891,118.125 826.5,121.5C 825.814,129.2 825.481,136.533 825.5,143.5C 824.022,144.448 823.022,145.781 822.5,147.5C 822.475,144.821 821.142,143.488 818.5,143.5C 817.955,135.871 818.288,128.204 819.5,120.5C 818.133,115.484 816.8,110.484 815.5,105.5C 818.025,104.36 820.692,103.693 823.5,103.5 Z"/></g>
<g><path style="opacity:1" fill="#84dcf2" d="M 546.5,93.5 C 546.123,95.258 545.456,96.9246 544.5,98.5C 540.722,102.434 538.722,106.767 538.5,111.5C 537.325,111.281 536.325,111.614 535.5,112.5C 534.627,114.413 533.627,116.247 532.5,118C 532.833,118.333 533.167,118.667 533.5,119C 530.366,121.769 528.699,125.269 528.5,129.5C 527.844,128.378 527.511,127.045 527.5,125.5C 528.274,121.951 529.607,118.618 531.5,115.5C 531.32,114.446 530.987,113.446 530.5,112.5C 531.5,111.833 532.5,111.167 533.5,110.5C 531.995,109.158 531.328,107.492 531.5,105.5C 530.022,105.238 528.689,105.571 527.5,106.5C 528.872,108.62 528.205,109.62 525.5,109.5C 525.5,110.833 525.5,112.167 525.5,113.5C 524.5,113.5 523.5,113.5 522.5,113.5C 525.537,107.264 528.87,101.097 532.5,95C 529.196,95.0409 525.863,95.3743 522.5,96C 519.848,96.353 517.848,97.5197 516.5,99.5C 515.566,98.4324 515.232,97.099 515.5,95.5C 517.5,95.5 519.5,95.5 521.5,95.5C 521.5,94.1667 521.5,92.8333 521.5,91.5C 525.37,92.799 529.37,93.4657 533.5,93.5C 533.613,96.0488 532.946,98.3821 531.5,100.5C 532.309,102.071 532.643,103.738 532.5,105.5C 534.288,105.785 535.955,105.452 537.5,104.5C 540.784,101.024 540.117,99.3573 535.5,99.5C 535.5,98.1667 535.5,96.8333 535.5,95.5C 539.347,95.6192 543.014,94.9525 546.5,93.5 Z"/></g>
<g><path style="opacity:1" fill="#6eb94f" d="M 794.5,133.5 C 792.733,131.062 791.399,128.395 790.5,125.5C 786.897,120.719 783.897,115.552 781.5,110C 782.793,109.51 784.127,109.343 785.5,109.5C 785.5,108.167 785.5,106.833 785.5,105.5C 785.833,105.5 786.167,105.5 786.5,105.5C 790.546,104.899 794.379,103.566 798,101.5C 798.833,101.833 799.667,102.167 800.5,102.5C 795.306,104.058 795.306,105.058 800.5,105.5C 800.832,114.857 800.498,124.19 799.5,133.5C 798.023,132.902 796.357,132.902 794.5,133.5 Z"/></g>
<g><path style="opacity:1" fill="#74ad62" d="M 800.5,97.5 C 802.833,97.5 805.167,97.5 807.5,97.5C 807.16,100.144 807.827,102.477 809.5,104.5C 807.152,105.86 806.985,107.527 809,109.5C 809.263,120.192 809.763,130.859 810.5,141.5C 809.5,141.5 808.5,141.5 807.5,141.5C 806.987,146.085 807.654,150.418 809.5,154.5C 809.043,155.298 808.376,155.631 807.5,155.5C 802.678,148.532 798.344,141.199 794.5,133.5C 796.357,132.902 798.023,132.902 799.5,133.5C 800.498,124.19 800.832,114.857 800.5,105.5C 795.306,105.058 795.306,104.058 800.5,102.5C 799.667,102.167 798.833,101.833 798,101.5C 794.379,103.566 790.546,104.899 786.5,105.5C 790.733,102.374 795.399,99.7077 800.5,97.5 Z"/></g>
<g><path style="opacity:1" fill="#6ca15e" d="M 823.5,103.5 C 820.692,103.693 818.025,104.36 815.5,105.5C 816.8,110.484 818.133,115.484 819.5,120.5C 818.288,128.204 817.955,135.871 818.5,143.5C 821.142,143.488 822.475,144.821 822.5,147.5C 820.302,147.409 819.969,148.075 821.5,149.5C 817.194,151.988 812.861,154.488 808.5,157C 806.934,157.765 805.601,157.598 804.5,156.5C 805.791,156.737 806.791,156.404 807.5,155.5C 808.376,155.631 809.043,155.298 809.5,154.5C 807.654,150.418 806.987,146.085 807.5,141.5C 808.5,141.5 809.5,141.5 810.5,141.5C 809.763,130.859 809.263,120.192 809,109.5C 806.985,107.527 807.152,105.86 809.5,104.5C 807.827,102.477 807.16,100.144 807.5,97.5C 805.167,97.5 802.833,97.5 800.5,97.5C 802.414,95.8996 804.581,94.5663 807,93.5C 812.913,96.2654 818.413,99.5988 823.5,103.5 Z"/></g>
<g><path style="opacity:0.929" fill="#68b279" d="M 3.5,97.5 C 3.80233,101.79 3.13566,105.79 1.5,109.5C 1.19767,105.21 1.86434,101.21 3.5,97.5 Z"/></g>
<g><path style="opacity:1" fill="#ade8f1" d="M 571.5,107.5 C 564.952,107.949 558.618,109.282 552.5,111.5C 554.57,109.137 557.237,107.471 560.5,106.5C 562.333,106.167 564.167,105.833 566,105.5C 568.295,105.547 570.129,106.213 571.5,107.5 Z"/></g>
<g><path style="opacity:0.122" fill="#d0faf8" d="M 478.5,113.5 C 476.926,116.332 474.593,118.332 471.5,119.5C 472.779,116.348 475.112,114.348 478.5,113.5 Z"/></g>
<g><path style="opacity:1" fill="#1c8534" d="M 116.5,105.5 C 119.338,122.109 119.005,138.776 115.5,155.5C 112.262,159.041 110.928,163.374 111.5,168.5C 111.5,168.833 111.5,169.167 111.5,169.5C 110.25,169.577 109.417,170.244 109,171.5C 107.443,174.666 106.61,178 106.5,181.5C 106.672,182.492 106.338,183.158 105.5,183.5C 103.801,184.511 102.301,185.845 101,187.5C 100.05,186.978 99.2164,186.311 98.5,185.5C 96.8574,190.02 95.8574,194.687 95.5,199.5C 93.2151,196.788 92.5485,197.121 93.5,200.5C 91.4177,202.422 90.0844,204.755 89.5,207.5C 86.5444,208.485 83.5444,209.485 80.5,210.5C 79.8839,213.682 78.8839,216.682 77.5,219.5C 76.101,222.564 73.7676,224.564 70.5,225.5C 69.609,226.11 68.609,226.443 67.5,226.5C 67.5,226.167 67.5,225.833 67.5,225.5C 63.3413,219.563 61.0079,212.897 60.5,205.5C 60.3578,193.482 60.6912,181.482 61.5,169.5C 61.5,167.5 61.5,165.5 61.5,163.5C 62.3724,149.665 63.0391,135.665 63.5,121.5C 64.8333,121.5 66.1667,121.5 67.5,121.5C 67.5,125.167 67.5,128.833 67.5,132.5C 68.8333,132.5 70.1667,132.5 71.5,132.5C 71.5,128.833 71.5,125.167 71.5,121.5C 74.1667,121.5 76.8333,121.5 79.5,121.5C 79.5,120.167 79.5,118.833 79.5,117.5C 87.5,117.5 95.5,117.5 103.5,117.5C 103.5,118.833 103.5,120.167 103.5,121.5C 104.833,121.5 106.167,121.5 107.5,121.5C 107.187,118.753 107.52,116.086 108.5,113.5C 110.27,118.674 111.437,118.341 112,112.5C 112.333,112.833 112.667,113.167 113,113.5C 113.023,124.325 113.69,134.992 115,145.5C 116.425,132.227 116.925,118.894 116.5,105.5 Z"/></g>
<g><path style="opacity:1" fill="#62a257" d="M 785.5,105.5 C 785.5,106.833 785.5,108.167 785.5,109.5C 784.127,109.343 782.793,109.51 781.5,110C 783.897,115.552 786.897,120.719 790.5,125.5C 789.624,125.369 788.957,125.702 788.5,126.5C 785.824,130.917 783.157,135.25 780.5,139.5C 779.662,139.158 779.328,138.492 779.5,137.5C 779.651,128.873 779.485,120.207 779,111.5C 779.309,110.234 779.809,109.067 780.5,108C 782.249,107.215 783.916,106.382 785.5,105.5 Z"/></g>
<g><path style="opacity:1" fill="#9ce2f1" d="M 587.5,93.5 C 589.66,96.1726 592.326,98.506 595.5,100.5C 599.912,107.828 603.579,115.495 606.5,123.5C 606.421,124.93 606.754,126.264 607.5,127.5C 607.145,128.522 606.478,129.189 605.5,129.5C 606.204,125.154 604.87,121.654 601.5,119C 601.833,118.667 602.167,118.333 602.5,118C 596.86,110.2 591.86,102.034 587.5,93.5 Z"/></g>
<g><path style="opacity:1" fill="#66d9f7" d="M 571.5,107.5 C 574.361,107.342 577.028,108.008 579.5,109.5C 582.872,106.515 583.872,107.015 582.5,111C 583.748,113.073 584.748,115.239 585.5,117.5C 587.143,121.3 587.81,125.3 587.5,129.5C 587.795,131.735 587.461,133.735 586.5,135.5C 584.571,137.06 583.238,139.06 582.5,141.5C 580.336,145.385 577.003,147.385 572.5,147.5C 567.308,147.909 562.308,147.242 557.5,145.5C 554.446,145.646 552.446,144.313 551.5,141.5C 549.691,137.085 548.691,132.418 548.5,127.5C 548.716,125.616 549.383,123.949 550.5,122.5C 549.48,120.568 549.313,118.568 550,116.5C 551.372,115.09 552.205,113.423 552.5,111.5C 558.618,109.282 564.952,107.949 571.5,107.5 Z"/></g>
<g><path style="opacity:1" fill="#7fdcf0" d="M 511.5,117.5 C 513.176,118.183 513.843,119.517 513.5,121.5C 514.833,121.5 516.167,121.5 517.5,121.5C 517.238,120.022 517.571,118.689 518.5,117.5C 518.833,118.333 519.167,119.167 519.5,120C 518.343,123.113 517.843,126.28 518,129.5C 519.351,130.961 520.851,132.294 522.5,133.5C 523.761,142.354 527.427,150.02 533.5,156.5C 534.309,158.071 534.643,159.738 534.5,161.5C 532.042,161.227 530.375,162.227 529.5,164.5C 531.396,165.466 533.396,165.799 535.5,165.5C 535.5,164.167 535.5,162.833 535.5,161.5C 536.833,161.5 538.167,161.5 539.5,161.5C 540.015,165.913 538.015,168.246 533.5,168.5C 536.107,169.318 538.774,169.818 541.5,170C 542.337,171.011 542.67,172.178 542.5,173.5C 538.049,171.924 533.382,171.09 528.5,171C 527.944,170.617 527.611,170.117 527.5,169.5C 528.376,169.631 529.043,169.298 529.5,168.5C 526.958,162.945 522.958,159.279 517.5,157.5C 521.219,157.368 524.719,158.035 528,159.5C 529.167,159.167 530.333,158.833 531.5,158.5C 529.233,153.576 526.567,148.909 523.5,144.5C 522.675,143.614 521.675,143.281 520.5,143.5C 520.539,142.417 520.873,141.417 521.5,140.5C 518.854,138.868 517.521,136.535 517.5,133.5C 516.5,133.5 515.5,133.5 514.5,133.5C 514.167,136.167 513.833,138.833 513.5,141.5C 512.178,141.33 511.011,141.663 510,142.5C 509.302,145.004 508.469,147.337 507.5,149.5C 507.338,147.473 507.505,145.473 508,143.5C 510.395,138.411 512.561,133.245 514.5,128C 513.266,124.563 512.266,121.063 511.5,117.5 Z"/></g>
<g><path style="opacity:1" fill="#a1e5f2" d="M 552.5,111.5 C 552.205,113.423 551.372,115.09 550,116.5C 549.313,118.568 549.48,120.568 550.5,122.5C 549.383,123.949 548.716,125.616 548.5,127.5C 548.691,132.418 549.691,137.085 551.5,141.5C 550.5,141.5 549.5,141.5 548.5,141.5C 546.266,134.995 545.266,128.495 545.5,122C 547.294,118.912 548.961,115.746 550.5,112.5C 550.957,111.702 551.624,111.369 552.5,111.5 Z"/></g>
<g><path style="opacity:0.506" fill="#787a79" d="M 951.5,119.5 C 953.402,122.337 954.069,125.671 953.5,129.5C 952.763,126.275 952.097,122.941 951.5,119.5 Z"/></g>
<g><path style="opacity:0.063" fill="#e1f8fa" d="M 585.5,117.5 C 586.931,117.881 587.764,118.881 588,120.5C 588.805,123.696 588.638,126.696 587.5,129.5C 587.81,125.3 587.143,121.3 585.5,117.5 Z"/></g>
<g><path style="opacity:0.063" fill="#e1fcf7" d="M 531.5,125.5 C 533.337,125.639 533.67,126.306 532.5,127.5C 531.702,127.043 531.369,126.376 531.5,125.5 Z"/></g>
<g><path style="opacity:0.031" fill="#eaf8fe" d="M 591.5,127.5 C 593.337,127.639 593.67,128.306 592.5,129.5C 591.702,129.043 591.369,128.376 591.5,127.5 Z"/></g>
<g><path style="opacity:1" fill="#74daf5" d="M 631.5,87.5 C 632.007,88.8589 633.007,89.8589 634.5,90.5C 649.603,95.0119 662.603,103.012 673.5,114.5C 678.406,122.316 678.739,130.316 674.5,138.5C 668.844,146.497 661.51,152.497 652.5,156.5C 645.597,159.961 638.597,162.961 631.5,165.5C 631.84,162.856 631.173,160.523 629.5,158.5C 631.005,157.158 631.672,155.492 631.5,153.5C 637.107,150.618 642.941,147.951 649,145.5C 655.218,142.141 660.551,137.807 665,132.5C 667.062,125.466 664.895,120.299 658.5,117C 658.833,116.667 659.167,116.333 659.5,116C 653.7,112.448 648.034,108.948 642.5,105.5C 646.555,105.824 650.555,105.491 654.5,104.5C 651.872,103.534 649.872,101.868 648.5,99.5C 647.571,100.689 647.238,102.022 647.5,103.5C 643.868,102.267 642.202,99.6008 642.5,95.5C 638.846,94.5992 635.179,93.5992 631.5,92.5C 630.265,90.6837 630.265,89.017 631.5,87.5 Z"/></g>
<g><path style="opacity:1" fill="#7ba076" d="M 941.5,119.5 C 947.746,119.513 950.246,122.513 949,128.5C 945.333,132.5 941.667,132.5 938,128.5C 937.333,126.5 937.333,124.5 938,122.5C 939.518,121.837 940.685,120.837 941.5,119.5 Z"/></g>
<g><path style="opacity:1" fill="#63a15f" d="M 941.5,121.5 C 945.485,121.44 947.152,123.44 946.5,127.5C 944.833,127.5 943.167,127.5 941.5,127.5C 941.5,125.5 941.5,123.5 941.5,121.5 Z"/></g>
<g><path style="opacity:0.663" fill="#8cc39c" d="M 1.5,111.5 C 1.5,122.167 1.5,132.833 1.5,143.5C 0.833333,138.5 0.166667,133.5 -0.5,128.5C -0.5,127.167 -0.5,125.833 -0.5,124.5C 0.833333,124.167 0.833333,123.833 -0.5,123.5C -0.5,121.5 -0.5,119.5 -0.5,117.5C 0.166667,115.5 0.833333,113.5 1.5,111.5 Z"/></g>
<g><path style="opacity:1" fill="#44883f" d="M 833.5,111.5 C 833.666,120.839 833.5,130.173 833,139.5C 831.388,142.479 828.888,143.812 825.5,143.5C 825.481,136.533 825.814,129.2 826.5,121.5C 828.891,118.125 831.224,114.792 833.5,111.5 Z"/></g>
<g><path style="opacity:0.098" fill="#e7f8ff" d="M 595.5,137.5 C 597.337,137.639 597.67,138.306 596.5,139.5C 595.702,139.043 595.369,138.376 595.5,137.5 Z"/></g>
<g><path style="opacity:0.063" fill="#def8fa" d="M 586.5,135.5 C 586.5,137.5 586.5,139.5 586.5,141.5C 585.167,141.5 583.833,141.5 582.5,141.5C 583.238,139.06 584.571,137.06 586.5,135.5 Z"/></g>
<g><path style="opacity:0.914" fill="#7ba277" d="M 779.5,137.5 C 779.328,138.492 779.662,139.158 780.5,139.5C 782.393,141.228 784.06,143.228 785.5,145.5C 780.567,144.616 778.567,141.949 779.5,137.5 Z"/></g>
<g><path style="opacity:1" fill="#71d9f5" d="M 471.5,105.5 C 474.247,105.187 476.914,105.52 479.5,106.5C 483.335,107.996 483.335,108.996 479.5,109.5C 479.567,110.959 479.234,112.292 478.5,113.5C 475.112,114.348 472.779,116.348 471.5,119.5C 470.313,121.869 468.98,124.202 467.5,126.5C 468.04,127.748 468.707,128.915 469.5,130C 469.167,130.333 468.833,130.667 468.5,131C 473.531,137.548 479.865,142.715 487.5,146.5C 493.106,148.609 498.606,150.942 504,153.5C 505.412,152.314 506.579,150.981 507.5,149.5C 507.328,151.492 507.995,153.158 509.5,154.5C 507.604,155.466 505.604,155.799 503.5,155.5C 503.5,156.833 503.5,158.167 503.5,159.5C 500.302,158.964 497.635,159.631 495.5,161.5C 481.224,157.746 469.391,150.079 460,138.5C 455.064,128.22 456.564,118.887 464.5,110.5C 466.559,108.352 468.892,106.685 471.5,105.5 Z"/></g>
<g><path style="opacity:1" fill="#729e70" d="M 834.5,110.5 C 835.659,120.658 835.825,130.992 835,141.5C 830.527,144.316 826.027,146.982 821.5,149.5C 819.969,148.075 820.302,147.409 822.5,147.5C 823.022,145.781 824.022,144.448 825.5,143.5C 828.888,143.812 831.388,142.479 833,139.5C 833.5,130.173 833.666,120.839 833.5,111.5C 833.5,110.833 833.833,110.5 834.5,110.5 Z"/></g>
<g><path style="opacity:1" fill="#42853f" d="M 790.5,125.5 C 791.399,128.395 792.733,131.062 794.5,133.5C 798.344,141.199 802.678,148.532 807.5,155.5C 806.791,156.404 805.791,156.737 804.5,156.5C 798.035,153.1 791.702,149.433 785.5,145.5C 784.06,143.228 782.393,141.228 780.5,139.5C 783.157,135.25 785.824,130.917 788.5,126.5C 788.957,125.702 789.624,125.369 790.5,125.5 Z"/></g>
<g><path style="opacity:0.387" fill="#daf8fc" d="M 557.5,145.5 C 562.308,147.242 567.308,147.909 572.5,147.5C 570.952,148.794 568.952,149.461 566.5,149.5C 564.5,149.167 562.5,148.833 560.5,148.5C 559.007,147.859 558.007,146.859 557.5,145.5 Z"/></g>
<g><path style="opacity:1" fill="#6ad8f7" d="M 626.5,147.5 C 627.306,148.997 627.972,150.664 628.5,152.5C 629.325,153.386 630.325,153.719 631.5,153.5C 631.672,155.492 631.005,157.158 629.5,158.5C 631.173,160.523 631.84,162.856 631.5,165.5C 634.759,179.633 635.259,193.966 633,208.5C 631.448,214.449 628.281,219.283 623.5,223C 622.552,223.483 621.552,223.649 620.5,223.5C 614.5,223.5 608.5,223.5 602.5,223.5C 601.5,223.5 600.5,223.5 599.5,223.5C 597.683,221.988 596.683,219.988 596.5,217.5C 598.367,217.045 600.2,216.378 602,215.5C 605.457,216.949 608.957,218.283 612.5,219.5C 616.257,218.948 616.257,217.948 612.5,216.5C 614.544,215.935 616.21,214.935 617.5,213.5C 618.449,211.223 619.782,209.223 621.5,207.5C 623.247,206.019 624.414,204.019 625,201.5C 625.667,194.167 625.667,186.833 625,179.5C 624.722,178.584 624.222,177.918 623.5,177.5C 622.232,175.095 621.565,172.428 621.5,169.5C 621.244,167.208 621.577,165.041 622.5,163C 621.095,161.731 619.429,161.231 617.5,161.5C 617.5,162.833 617.5,164.167 617.5,165.5C 615.027,165.264 613.36,163.931 612.5,161.5C 611.065,163.401 609.398,163.734 607.5,162.5C 608.127,161.583 608.461,160.583 608.5,159.5C 611.246,157.874 614.246,157.207 617.5,157.5C 616.833,153.5 616.167,149.5 615.5,145.5C 615.5,143.5 615.5,141.5 615.5,139.5C 618.205,139.62 618.872,138.62 617.5,136.5C 619.007,135.261 620.174,135.595 621,137.5C 621.808,139.579 621.641,141.579 620.5,143.5C 618.354,139.897 617.354,140.563 617.5,145.5C 620.119,145.768 622.619,145.435 625,144.5C 625.232,145.737 625.732,146.737 626.5,147.5 Z"/></g>
<g><path style="opacity:0.267" fill="#a1d8ae" d="M 1.5,144.5 C 3.11805,147.171 3.78472,150.171 3.5,153.5C 2.34281,150.727 1.67615,147.727 1.5,144.5 Z"/></g>
<g><path style="opacity:0.059" fill="#a8ddb7" d="M 3.5,153.5 C 4.73838,155.214 5.40505,157.214 5.5,159.5C 3.92606,157.898 3.25939,155.898 3.5,153.5 Z"/></g>
<g><path style="opacity:0.052" fill="#e1fef3" d="M 549.5,157.5 C 551.337,157.639 551.67,158.306 550.5,159.5C 549.702,159.043 549.369,158.376 549.5,157.5 Z"/></g>
<g><path style="opacity:1" fill="#619e6d" d="M 115.5,155.5 C 114.616,160.054 113.283,164.387 111.5,168.5C 110.928,163.374 112.262,159.041 115.5,155.5 Z"/></g>
<g><path style="opacity:0.313" fill="#939393" d="M 376.5,159.5 C 377.043,159.56 377.376,159.893 377.5,160.5C 372.014,161.815 366.68,161.815 361.5,160.5C 366.695,160.821 371.695,160.487 376.5,159.5 Z"/></g>
<g><path style="opacity:0.318" fill="#c8f0f4" d="M 591.5,155.5 C 591.04,160.447 588.374,163.114 583.5,163.5C 571.829,163.667 560.162,163.5 548.5,163C 546.574,162.578 545.574,161.411 545.5,159.5C 546.289,159.783 546.956,160.283 547.5,161C 560.846,161.833 574.179,161.666 587.5,160.5C 588.154,158.142 589.487,156.475 591.5,155.5 Z"/></g>
<g><path style="opacity:0.349" fill="#9cddb3" d="M 5.5,161.5 C 6.67373,162.514 7.3404,163.847 7.5,165.5C 5.89578,164.713 5.22911,163.38 5.5,161.5 Z"/></g>
<g><path style="opacity:1" fill="#32a240" d="M 19.5,55.5 C 21.1644,56.9488 21.9977,58.9488 22,61.5C 23.0437,60.3774 23.7104,59.0441 24,57.5C 26.7497,63.2464 28.7497,69.2464 30,75.5C 30.9832,77.4484 32.1498,79.2817 33.5,81C 33.0426,81.414 32.7093,81.914 32.5,82.5C 37.3304,96.5439 42.1637,110.544 47,124.5C 47.499,128.821 47.6657,133.154 47.5,137.5C 48.8333,137.5 50.1667,137.5 51.5,137.5C 51.9294,140.363 52.9294,143.029 54.5,145.5C 55.3078,143.577 55.8078,141.577 56,139.5C 56.3333,139.833 56.6667,140.167 57,140.5C 57.7841,150.032 58.4507,159.698 59,169.5C 59.8232,176.134 60.3232,176.134 60.5,169.5C 60.8333,169.5 61.1667,169.5 61.5,169.5C 60.6912,181.482 60.3578,193.482 60.5,205.5C 59.0735,207.148 58.2401,209.148 58,211.5C 57.4987,215.51 56.9987,219.51 56.5,223.5C 56.4456,225.632 55.4456,226.965 53.5,227.5C 52.8333,226.167 52.1667,224.833 51.5,223.5C 53.4241,223.289 53.7574,222.623 52.5,221.5C 53.7683,220.213 53.435,219.213 51.5,218.5C 52.8333,217.833 54.1667,217.167 55.5,216.5C 53.5219,211.558 51.8552,206.558 50.5,201.5C 52.1667,201.5 53.8333,201.5 55.5,201.5C 55.6653,197.818 55.4986,194.152 55,190.5C 54.3333,189.833 53.6667,189.167 53,188.5C 48.2588,173.13 43.5921,157.797 39,142.5C 36.8406,139.872 35.3406,136.872 34.5,133.5C 32.6161,124.537 30.1161,115.87 27,107.5C 26.2904,106.027 25.1238,105.36 23.5,105.5C 23.3573,103.738 23.6906,102.071 24.5,100.5C 22.2303,99.4066 21.897,97.9066 23.5,96C 22.0634,91.5241 20.73,87.0241 19.5,82.5C 17.952,82.7877 16.2853,82.7877 14.5,82.5C 13.9851,80.7749 13.3184,79.1083 12.5,77.5C 11.0834,79.2611 9.41673,80.5944 7.5,81.5C 7.5,80.8333 7.5,80.1667 7.5,79.5C 10.8275,74.7787 12.8275,69.4454 13.5,63.5C 14.8333,63.5 16.1667,63.5 17.5,63.5C 17.1107,60.4467 17.7773,57.78 19.5,55.5 Z"/></g>
<g><path style="opacity:1" fill="#71daf4" d="M 625.5,109.5 C 623.511,115.484 621.511,121.484 619.5,127.5C 622.419,133.996 624.752,140.662 626.5,147.5C 625.732,146.737 625.232,145.737 625,144.5C 622.619,145.435 620.119,145.768 617.5,145.5C 617.354,140.563 618.354,139.897 620.5,143.5C 621.641,141.579 621.808,139.579 621,137.5C 620.174,135.595 619.007,135.261 617.5,136.5C 618.872,138.62 618.205,139.62 615.5,139.5C 615.5,141.5 615.5,143.5 615.5,145.5C 613.621,145.607 613.288,145.107 614.5,144C 613.953,143.075 613.287,142.242 612.5,141.5C 609.419,147.331 606.085,152.998 602.5,158.5C 604.396,159.466 606.396,159.799 608.5,159.5C 608.461,160.583 608.127,161.583 607.5,162.5C 609.398,163.734 611.065,163.401 612.5,161.5C 613.36,163.931 615.027,165.264 617.5,165.5C 617.5,164.167 617.5,162.833 617.5,161.5C 619.429,161.231 621.095,161.731 622.5,163C 621.577,165.041 621.244,167.208 621.5,169.5C 620.265,169.279 619.265,168.612 618.5,167.5C 610.789,170.163 602.789,171.663 594.5,172C 591.734,175.522 588.734,178.855 585.5,182C 585.833,182.333 586.167,182.667 586.5,183C 585.552,183.483 584.552,183.649 583.5,183.5C 583.756,179.818 585.423,176.985 588.5,175C 587.167,174 587.167,173 588.5,172C 586.866,171.506 585.199,171.34 583.5,171.5C 583.5,168.833 583.5,166.167 583.5,163.5C 588.374,163.114 591.04,160.447 591.5,155.5C 596.565,147.087 601.232,138.421 605.5,129.5C 606.478,129.189 607.145,128.522 607.5,127.5C 606.754,126.264 606.421,124.93 606.5,123.5C 607.693,123.97 608.36,124.97 608.5,126.5C 607.507,129.823 606.507,133.156 605.5,136.5C 606.167,136.833 606.833,137.167 607.5,137.5C 609.954,136.528 612.121,135.195 614,133.5C 614.333,134.167 614.667,134.833 615,135.5C 618.484,130.083 618.318,124.749 614.5,119.5C 612.904,124.5 611.238,124.334 609.5,119C 609.939,115.984 609.939,112.818 609.5,109.5C 610.393,111.297 611.726,112.63 613.5,113.5C 617.742,112.583 619.742,109.917 619.5,105.5C 621.5,105.5 623.5,105.5 625.5,105.5C 625.5,106.833 625.5,108.167 625.5,109.5 Z"/></g>
<g><path style="opacity:1" fill="#65d8f8" d="M 520.5,143.5 C 518.894,148.042 517.894,152.709 517.5,157.5C 522.958,159.279 526.958,162.945 529.5,168.5C 529.043,169.298 528.376,169.631 527.5,169.5C 522.964,169.85 518.631,169.183 514.5,167.5C 511.974,167.687 510.307,169.02 509.5,171.5C 509.672,181.437 509.672,191.437 509.5,201.5C 508.167,201.5 506.833,201.5 505.5,201.5C 506.069,205.329 505.402,208.663 503.5,211.5C 504.461,208.672 504.295,206.005 503,203.5C 502.131,197.866 501.631,192.2 501.5,186.5C 502.969,178.279 503.635,169.945 503.5,161.5C 500.833,161.5 498.167,161.5 495.5,161.5C 497.635,159.631 500.302,158.964 503.5,159.5C 503.5,158.167 503.5,156.833 503.5,155.5C 505.604,155.799 507.604,155.466 509.5,154.5C 507.995,153.158 507.328,151.492 507.5,149.5C 508.469,147.337 509.302,145.004 510,142.5C 511.011,141.663 512.178,141.33 513.5,141.5C 513.833,138.833 514.167,136.167 514.5,133.5C 515.5,133.5 516.5,133.5 517.5,133.5C 517.521,136.535 518.854,138.868 521.5,140.5C 520.873,141.417 520.539,142.417 520.5,143.5 Z"/></g>
<g><path style="opacity:1" fill="#b2c3b3" d="M 874.5,164.5 C 880.523,165.06 882.19,167.894 879.5,173C 875.366,175.389 872.7,174.222 871.5,169.5C 871.757,167.308 872.757,165.641 874.5,164.5 Z"/></g>
<g><path style="opacity:1" fill="#7ba279" d="M 840.5,171.5 C 845.777,170.931 850.777,171.765 855.5,174C 857.113,176.228 857.78,178.728 857.5,181.5C 856.127,181.657 854.793,181.49 853.5,181C 850.565,176.592 846.565,175.425 841.5,177.5C 841.167,177.833 840.833,178.167 840.5,178.5C 841.376,179.251 842.376,179.751 843.5,180C 843.167,180.333 842.833,180.667 842.5,181C 846.896,181.746 851.23,182.746 855.5,184C 860.892,188.575 860.558,192.909 854.5,197C 849.5,197.667 844.5,197.667 839.5,197C 836.574,195.493 834.574,193.159 833.5,190C 836.648,186.384 838.814,186.884 840,191.5C 844.623,194.275 849.123,194.109 853.5,191C 852.167,190.333 852.167,189.667 853.5,189C 848.249,187.415 842.915,186.082 837.5,185C 835.496,182.159 834.996,178.993 836,175.5C 837.667,174.267 839.167,172.933 840.5,171.5 Z"/></g>
<g><path style="opacity:1" fill="#62ab75" d="M 9.5,171.5 C 12.1183,173.906 14.1183,176.739 15.5,180C 15.1667,180.333 14.8333,180.667 14.5,181C 16.1066,182.049 16.7733,183.549 16.5,185.5C 13.1106,181.388 10.7773,176.721 9.5,171.5 Z"/></g>
<g><path style="opacity:1" fill="#649d6d" d="M 111.5,169.5 C 110.345,173.797 108.679,177.797 106.5,181.5C 106.61,178 107.443,174.666 109,171.5C 109.417,170.244 110.25,169.577 111.5,169.5 Z"/></g>
<g><path style="opacity:1" fill="#6b9962" d="M 816.5,165.5 C 818.176,166.183 818.843,167.517 818.5,169.5C 817.504,169.414 816.671,169.748 816,170.5C 815.5,179.827 815.334,189.161 815.5,198.5C 815.5,199.5 815.5,200.5 815.5,201.5C 814.5,201.5 813.5,201.5 812.5,201.5C 811.341,190.341 811.174,179.008 812,167.5C 813.11,165.963 814.61,165.297 816.5,165.5 Z"/></g>
<g><path style="opacity:0.29" fill="#9fbd9f" d="M 831.5,202.5 C 831.5,192.833 831.5,183.167 831.5,173.5C 830.5,173.5 829.5,173.5 828.5,173.5C 828.827,182.682 828.493,191.682 827.5,200.5C 827.5,191.167 827.5,181.833 827.5,172.5C 829.167,172.5 830.833,172.5 832.5,172.5C 832.827,182.681 832.494,192.681 831.5,202.5 Z"/></g>
<g><path style="opacity:1" fill="#408e4e" d="M 105.5,183.5 C 103.177,189.481 99.8441,194.815 95.5,199.5C 95.8574,194.687 96.8574,190.02 98.5,185.5C 99.2164,186.311 100.05,186.978 101,187.5C 102.301,185.845 103.801,184.511 105.5,183.5 Z"/></g>
<g><path style="opacity:1" fill="#669b62" d="M 831.5,202.5 C 831.715,204.179 831.048,205.179 829.5,205.5C 827.396,205.799 825.396,205.466 823.5,204.5C 825.332,203.943 826.665,202.943 827.5,201.5C 827.5,201.167 827.5,200.833 827.5,200.5C 828.493,191.682 828.827,182.682 828.5,173.5C 829.5,173.5 830.5,173.5 831.5,173.5C 831.5,183.167 831.5,192.833 831.5,202.5 Z"/></g>
<g><path style="opacity:1" fill="#5da86c" d="M 16.5,185.5 C 20.5682,187.95 22.9015,191.616 23.5,196.5C 20.1098,194.191 17.7765,190.525 16.5,185.5 Z"/></g>
<g><path style="opacity:1" fill="#68b178" d="M 23.5,197.5 C 24.8333,197.5 26.1667,197.5 27.5,197.5C 27.5172,199.565 27.8505,201.565 28.5,203.5C 26.359,201.878 24.6924,199.878 23.5,197.5 Z"/></g>
<g><path style="opacity:1" fill="#8bdbe9" d="M 623.5,177.5 C 624.222,177.918 624.722,178.584 625,179.5C 625.667,186.833 625.667,194.167 625,201.5C 624.414,204.019 623.247,206.019 621.5,207.5C 623.363,197.636 624.029,187.636 623.5,177.5 Z"/></g>
<g><path style="opacity:1" fill="#95dbee" d="M 495.5,161.5 C 498.167,161.5 500.833,161.5 503.5,161.5C 503.635,169.945 502.969,178.279 501.5,186.5C 501.631,192.2 502.131,197.866 503,203.5C 504.295,206.005 504.461,208.672 503.5,211.5C 502.019,208.393 500.852,205.059 500,201.5C 499.446,189.287 500.279,177.453 502.5,166C 502.355,165.228 502.022,164.561 501.5,164C 498.949,163.998 496.949,163.164 495.5,161.5 Z"/></g>
<g><path style="opacity:1" fill="#599b68" d="M 95.5,199.5 C 93.963,202.602 91.963,205.268 89.5,207.5C 90.0844,204.755 91.4177,202.422 93.5,200.5C 92.5485,197.121 93.2151,196.788 95.5,199.5 Z"/></g>
<g><path style="opacity:1" fill="#85a982" d="M 815.5,198.5 C 818.548,200.03 821.714,201.363 825,202.5C 825.902,202.257 826.735,201.923 827.5,201.5C 826.665,202.943 825.332,203.943 823.5,204.5C 825.396,205.466 827.396,205.799 829.5,205.5C 829.389,206.117 829.056,206.617 828.5,207C 822.264,207.712 816.931,205.878 812.5,201.5C 813.5,201.5 814.5,201.5 815.5,201.5C 815.5,200.5 815.5,199.5 815.5,198.5 Z"/></g>
<g><path style="opacity:1" fill="#59af6a" d="M 28.5,203.5 C 30.288,203.215 31.9547,203.548 33.5,204.5C 33.6617,206.693 34.3284,209.026 35.5,211.5C 32.244,209.664 29.9107,206.997 28.5,203.5 Z"/></g>
<g><path style="opacity:1" fill="#7ba378" d="M 818.5,169.5 C 818.843,167.517 818.176,166.183 816.5,165.5C 823.687,160.404 831.354,156.071 839.5,152.5C 849.087,156.647 858.254,161.647 867,167.5C 868.121,173.061 868.621,178.727 868.5,184.5C 868.621,190.273 868.121,195.939 867,201.5C 858.228,207.138 849.062,212.138 839.5,216.5C 835.56,215.196 831.893,213.363 828.5,211C 830.09,209.954 831.59,208.787 833,207.5C 835.311,210.191 838.144,211.357 841.5,211C 848.408,206.434 855.574,202.268 863,198.5C 863.667,189.167 863.667,179.833 863,170.5C 855.21,166.023 847.377,161.69 839.5,157.5C 832.927,160.991 825.927,164.991 818.5,169.5 Z"/></g>
<g><path style="opacity:1" fill="#468d55" d="M 89.5,207.5 C 89.6107,208.117 89.944,208.617 90.5,209C 86.3042,212.698 81.9709,216.198 77.5,219.5C 78.8839,216.682 79.8839,213.682 80.5,210.5C 83.5444,209.485 86.5444,208.485 89.5,207.5 Z"/></g>
<g><path style="opacity:1" fill="#79daf2" d="M 583.5,183.5 C 581.399,187.111 579.066,190.611 576.5,194C 585.989,204.606 597.656,211.439 611.5,214.5C 613.453,213.844 615.453,213.511 617.5,213.5C 616.21,214.935 614.544,215.935 612.5,216.5C 616.257,217.948 616.257,218.948 612.5,219.5C 608.957,218.283 605.457,216.949 602,215.5C 600.2,216.378 598.367,217.045 596.5,217.5C 596.683,219.988 597.683,221.988 599.5,223.5C 590.915,220.663 583.581,215.997 577.5,209.5C 579.143,209.48 580.476,210.147 581.5,211.5C 581.833,211.167 582.167,210.833 582.5,210.5C 581.691,208.929 581.357,207.262 581.5,205.5C 580.448,205.649 579.448,205.483 578.5,205C 578.833,204.667 579.167,204.333 579.5,204C 576.945,202.742 576.278,200.909 577.5,198.5C 575.851,197.026 574.851,195.193 574.5,193C 576.894,190.135 578.561,186.969 579.5,183.5C 580.833,183.5 582.167,183.5 583.5,183.5 Z"/></g>
<g><path style="opacity:0.098" fill="#afe5c1" d="M 35.5,211.5 C 37.5869,212.585 38.9202,214.251 39.5,216.5C 37.9897,215.164 36.3231,213.997 34.5,213C 35.056,212.617 35.3893,212.117 35.5,211.5 Z"/></g>
<g><path style="opacity:1" fill="#7adcf0" d="M 514.5,167.5 C 510.548,179.245 509.715,191.245 512,203.5C 513.039,205.746 514.206,207.913 515.5,210C 514.944,210.383 514.611,210.883 514.5,211.5C 512.784,210.426 511.784,208.759 511.5,206.5C 510.311,205.571 508.978,205.238 507.5,205.5C 507.5,207.5 507.5,209.5 507.5,211.5C 508.833,211.5 510.167,211.5 511.5,211.5C 511.708,213.92 511.374,216.253 510.5,218.5C 514.15,220.167 517.15,222.501 519.5,225.5C 511.036,224.368 505.703,219.701 503.5,211.5C 505.402,208.663 506.069,205.329 505.5,201.5C 506.833,201.5 508.167,201.5 509.5,201.5C 509.672,191.437 509.672,181.437 509.5,171.5C 510.307,169.02 511.974,167.687 514.5,167.5 Z"/></g>
<g><path style="opacity:1" fill="#73d9f5" d="M 551.5,185.5 C 554.668,186.303 557.668,187.636 560.5,189.5C 561.167,190.833 561.833,192.167 562.5,193.5C 567.955,198.615 572.955,203.948 577.5,209.5C 573.758,208.115 570.425,206.115 567.5,203.5C 562.362,206.805 557.362,210.305 552.5,214C 552.833,214.333 553.167,214.667 553.5,215C 548.172,217.664 542.838,220.331 537.5,223C 531.664,224.962 525.664,225.795 519.5,225.5C 517.15,222.501 514.15,220.167 510.5,218.5C 511.374,216.253 511.708,213.92 511.5,211.5C 510.167,211.5 508.833,211.5 507.5,211.5C 507.5,209.5 507.5,207.5 507.5,205.5C 508.978,205.238 510.311,205.571 511.5,206.5C 511.784,208.759 512.784,210.426 514.5,211.5C 517.153,213.112 519.987,214.445 523,215.5C 536.636,211.749 548.47,204.749 558.5,194.5C 556.119,191.463 553.786,188.463 551.5,185.5 Z"/></g>
<g><path style="opacity:1" fill="#58a869" d="M 41.5,217.5 C 45.3088,218.934 48.6421,220.934 51.5,223.5C 52.1667,224.833 52.8333,226.167 53.5,227.5C 48.3116,225.575 44.3116,222.242 41.5,217.5 Z"/></g>
<g><path style="opacity:1" fill="#86a570" d="M 60.5,205.5 C 61.0079,212.897 63.3413,219.563 67.5,225.5C 66.1667,225.5 64.8333,225.5 63.5,225.5C 62.8333,222.833 62.1667,220.167 61.5,217.5C 60.5,217.5 59.5,217.5 58.5,217.5C 58.7406,219.898 58.0739,221.898 56.5,223.5C 56.9987,219.51 57.4987,215.51 58,211.5C 58.2401,209.148 59.0735,207.148 60.5,205.5 Z"/></g>
<g><path style="opacity:1" fill="#95e1e9" d="M 602.5,223.5 C 608.5,223.5 614.5,223.5 620.5,223.5C 617.913,224.816 614.913,225.483 611.5,225.5C 608.087,225.483 605.087,224.816 602.5,223.5 Z"/></g>
<g><path style="opacity:1" fill="#a8a984" d="M 67.5,225.5 C 67.5,225.833 67.5,226.167 67.5,226.5C 63.9044,233.296 61.5711,240.629 60.5,248.5C 60.1667,248.833 59.8333,249.167 59.5,249.5C 58.8281,248.051 58.1614,246.718 57.5,245.5C 57.0211,239.286 55.6878,233.286 53.5,227.5C 55.4456,226.965 56.4456,225.632 56.5,223.5C 58.0739,221.898 58.7406,219.898 58.5,217.5C 59.5,217.5 60.5,217.5 61.5,217.5C 62.1667,220.167 62.8333,222.833 63.5,225.5C 64.8333,225.5 66.1667,225.5 67.5,225.5 Z"/></g>
<g><path style="opacity:1" fill="#c4c2ab" d="M 70.5,225.5 C 68.7708,227.95 67.2708,230.617 66,233.5C 65.6235,241.858 64.9568,250.191 64,258.5C 62.3333,259.833 60.6667,259.833 59,258.5C 58.2646,254.187 57.7646,249.853 57.5,245.5C 58.1614,246.718 58.8281,248.051 59.5,249.5C 59.8333,249.167 60.1667,248.833 60.5,248.5C 61.5711,240.629 63.9044,233.296 67.5,226.5C 68.609,226.443 69.609,226.11 70.5,225.5 Z"/></g>
<g><path style="opacity:0.239" fill="#b5e7af" d="M 5.5,280.5 C 10.4889,279.834 15.6555,279.501 21,279.5C 26.5457,279.505 31.7124,280.172 36.5,281.5C 36.1667,281.5 35.8333,281.5 35.5,281.5C 25.6806,280.506 15.6806,280.173 5.5,280.5 Z"/></g>
<g><path style="opacity:0.314" fill="#aef8fe" d="M 579.5,280.5 C 563.167,280.5 546.833,280.5 530.5,280.5C 530.5,282.833 530.5,285.167 530.5,287.5C 529.527,285.052 529.194,282.385 529.5,279.5C 546.342,279.17 563.008,279.503 579.5,280.5 Z"/></g>
<g><path style="opacity:1" fill="#558e4e" d="M 5.5,280.5 C 15.6806,280.173 25.6806,280.506 35.5,281.5C 33.5,281.5 31.5,281.5 29.5,281.5C 22.0704,281.346 14.7371,282.013 7.5,283.5C 7.5,284.833 7.5,286.167 7.5,287.5C 6.83333,287.5 6.16667,287.5 5.5,287.5C 4.49367,287.062 4.49367,286.396 5.5,285.5C 5.5,283.833 5.5,282.167 5.5,280.5 Z"/></g>
<g><path style="opacity:1" fill="#74a86b" d="M 121.5,281.5 C 116.167,281.5 110.833,281.5 105.5,281.5C 100.833,281.5 96.1667,281.5 91.5,281.5C 91.646,284.554 90.3126,286.554 87.5,287.5C 87.8769,285.742 88.5435,284.075 89.5,282.5C 88.0977,281.158 88.4311,280.324 90.5,280C 95.6667,279.833 100.833,279.667 106,279.5C 111.546,279.505 116.712,280.172 121.5,281.5 Z"/></g>
<g><path style="opacity:0.326" fill="#9e9fa1" d="M 347.5,281.5 C 322.833,281.5 298.167,281.5 273.5,281.5C 273.5,283.833 273.5,286.167 273.5,288.5C 274.791,288.263 275.791,288.596 276.5,289.5C 275.167,289.5 273.833,289.5 272.5,289.5C 272.5,286.5 272.5,283.5 272.5,280.5C 297.672,280.169 322.672,280.502 347.5,281.5 Z"/></g>
<g><path style="opacity:0.989" fill="#9ebe8d" d="M 879.5,289.5 C 881.279,287.656 883.612,286.99 886.5,287.5C 886.5,285.5 886.5,283.5 886.5,281.5C 875.167,281.5 863.833,281.5 852.5,281.5C 852.357,283.262 852.691,284.929 853.5,286.5C 856.295,286.938 858.628,287.938 860.5,289.5C 852.633,290.81 849.633,287.476 851.5,279.5C 863.5,279.5 875.5,279.5 887.5,279.5C 890.034,287.12 887.367,290.453 879.5,289.5 Z"/></g>
<g><path style="opacity:0.133" fill="#d3f4c9" d="M 5.5,280.5 C 5.5,282.167 5.5,283.833 5.5,285.5C 2.83333,283.833 2.83333,282.167 5.5,280.5 Z"/></g>
<g><path style="opacity:1" fill="#3f3f40" d="M 347.5,281.5 C 348.656,288.989 348.822,296.655 348,304.5C 345.281,305.444 342.448,305.777 339.5,305.5C 338.978,302.432 338.145,299.432 337,296.5C 336.5,294.667 335.333,293.5 333.5,293C 323.55,291.669 313.55,291.169 303.5,291.5C 303.334,300.839 303.5,310.173 304,319.5C 312.088,318.683 320.255,318.183 328.5,318C 330.671,314.622 332.005,310.955 332.5,307C 335.706,306.11 338.706,306.443 341.5,308C 340.546,319.83 340.212,331.497 340.5,343C 337.833,343.667 335.167,343.667 332.5,343C 331.722,339.853 330.889,336.687 330,333.5C 329.481,332.484 328.647,331.818 327.5,331.5C 319.536,330.562 311.536,330.229 303.5,330.5C 303.5,340.833 303.5,351.167 303.5,361.5C 312.839,361.666 322.173,361.5 331.5,361C 338.311,358.354 342.977,353.521 345.5,346.5C 348.768,345.513 352.102,345.18 355.5,345.5C 353.479,354.917 351.146,364.25 348.5,373.5C 323.5,373.5 298.5,373.5 273.5,373.5C 273.5,373.167 273.5,372.833 273.5,372.5C 273.5,370.167 273.5,367.833 273.5,365.5C 275.735,365.795 277.735,365.461 279.5,364.5C 280.531,363.751 281.698,363.085 283,362.5C 284.586,340.866 284.919,319.2 284,297.5C 284.751,291.549 282.251,288.882 276.5,289.5C 275.791,288.596 274.791,288.263 273.5,288.5C 273.5,286.167 273.5,283.833 273.5,281.5C 298.167,281.5 322.833,281.5 347.5,281.5 Z"/></g>
<g><path style="opacity:1" fill="#4ca03d" d="M 105.5,281.5 C 105.104,284.482 105.771,287.149 107.5,289.5C 108.5,314.825 108.833,340.158 108.5,365.5C 106.833,365.5 105.167,365.5 103.5,365.5C 103.5,364.167 103.5,362.833 103.5,361.5C 102.5,361.5 101.5,361.5 100.5,361.5C 100.328,363.492 100.995,365.158 102.5,366.5C 101.167,367.167 99.8333,367.833 98.5,368.5C 99.3333,368.833 100.167,369.167 101,369.5C 107.061,367.389 113.228,367.055 119.5,368.5C 114.081,369.764 108.747,370.764 103.5,371.5C 95.8333,371.5 88.1667,371.5 80.5,371.5C 80.5,369.5 80.5,367.5 80.5,365.5C 84.5546,365.824 88.5546,365.491 92.5,364.5C 92.8333,363.833 93.1667,363.167 93.5,362.5C 92.5149,346.214 92.1816,329.881 92.5,313.5C 93.5,313.5 94.5,313.5 95.5,313.5C 95.2011,315.604 95.5344,317.604 96.5,319.5C 97.7258,315.248 97.0591,311.248 94.5,307.5C 92.3448,307.162 90.0115,307.162 87.5,307.5C 87.5,308.833 87.5,310.167 87.5,311.5C 87.1249,313.698 86.4582,315.698 85.5,317.5C 84.0108,319.116 83.0108,321.116 82.5,323.5C 81.8333,320.833 81.1667,318.167 80.5,315.5C 79.6628,317.844 78.3294,319.844 76.5,321.5C 76.1667,320.833 75.8333,320.167 75.5,319.5C 76.5,317.5 77.5,315.5 78.5,313.5C 80.6552,313.838 82.9885,313.838 85.5,313.5C 85.1459,311.459 85.1459,309.626 85.5,308C 84.2575,307.689 83.2575,308.189 82.5,309.5C 82.1667,308.5 81.8333,307.5 81.5,306.5C 82.4698,303.563 83.1365,300.563 83.5,297.5C 83.5,297.167 83.5,296.833 83.5,296.5C 86.5562,294.353 87.8895,291.353 87.5,287.5C 90.3126,286.554 91.646,284.554 91.5,281.5C 96.1667,281.5 100.833,281.5 105.5,281.5 Z"/></g>
<g><path style="opacity:1" fill="#98be86" d="M 830.5,295.5 C 829.325,295.719 828.325,295.386 827.5,294.5C 827.058,293.261 826.391,292.261 825.5,291.5C 823.846,289.521 821.846,287.855 819.5,286.5C 818.691,284.929 818.357,283.262 818.5,281.5C 811.137,281.169 803.803,281.503 796.5,282.5C 795.5,283.167 794.5,283.833 793.5,284.5C 793.667,284.833 793.833,285.167 794,285.5C 798.263,284.854 802.763,284.187 807.5,283.5C 807.5,284.833 807.5,286.167 807.5,287.5C 802.504,287.07 801.67,288.403 805,291.5C 804.856,315.325 805.689,338.992 807.5,362.5C 804.914,363.48 802.247,363.813 799.5,363.5C 800.315,362.163 801.482,361.163 803,360.5C 803.667,337.833 803.667,315.167 803,292.5C 799.753,289.561 795.919,288.228 791.5,288.5C 791.5,285.5 791.5,282.5 791.5,279.5C 800.506,279.334 809.506,279.5 818.5,280C 822.333,285.328 826.333,290.495 830.5,295.5 Z"/></g>
<g><path style="opacity:1" fill="#76a96b" d="M 35.5,281.5 C 35.8333,281.5 36.1667,281.5 36.5,281.5C 38.0075,283.181 39.0075,285.181 39.5,287.5C 38.1667,287.5 36.8333,287.5 35.5,287.5C 35.5,285.5 35.5,283.5 35.5,281.5 Z"/></g>
<g><path style="opacity:0.447" fill="#a7c6a1" d="M 5.5,287.5 C 6.16667,287.5 6.83333,287.5 7.5,287.5C 10.4951,287.294 13.1617,287.96 15.5,289.5C 12.1834,289.219 9.01678,289.219 6,289.5C 5.53566,288.906 5.36899,288.239 5.5,287.5 Z"/></g>
<g><path style="opacity:1" fill="#96b98d" d="M 121.5,281.5 C 122.288,283.942 121.955,286.442 120.5,289C 117.854,289.497 115.187,289.664 112.5,289.5C 114.372,287.938 116.705,286.938 119.5,286.5C 120.456,284.925 121.123,283.258 121.5,281.5 Z"/></g>
<g><path style="opacity:1" fill="#7bdbf1" d="M 579.5,280.5 C 595.37,281.871 604.037,290.371 605.5,306C 605.7,308.866 605.033,311.366 603.5,313.5C 603.771,308.087 603.271,302.754 602,297.5C 596.921,292.229 591.755,292.229 586.5,297.5C 586.134,303.229 585.134,308.563 583.5,313.5C 587.227,301.602 583.227,294.269 571.5,291.5C 568.038,290.518 564.371,290.185 560.5,290.5C 566.678,289.183 573.012,289.183 579.5,290.5C 581.328,293.013 583.661,294.679 586.5,295.5C 586.5,294.167 586.5,292.833 586.5,291.5C 581.735,289.999 579.402,286.666 579.5,281.5C 564.167,281.5 548.833,281.5 533.5,281.5C 533.5,283.5 533.5,285.5 533.5,287.5C 536.082,287.025 538.082,287.692 539.5,289.5C 535.988,290.055 532.988,289.388 530.5,287.5C 530.5,285.167 530.5,282.833 530.5,280.5C 546.833,280.5 563.167,280.5 579.5,280.5 Z"/></g>
<g><path style="opacity:1" fill="#4da03e" d="M 29.5,281.5 C 31.5,281.5 33.5,281.5 35.5,281.5C 35.5,283.5 35.5,285.5 35.5,287.5C 36.8333,287.5 38.1667,287.5 39.5,287.5C 39.5,288.167 39.5,288.833 39.5,289.5C 39.2917,293.085 40.625,295.751 43.5,297.5C 42.4831,302.231 41.1498,306.897 39.5,311.5C 40.7545,313.334 41.4211,315.334 41.5,317.5C 42.8333,317.5 44.1667,317.5 45.5,317.5C 45.6671,310.925 47.3338,310.259 50.5,315.5C 51.762,318.022 52.4287,320.689 52.5,323.5C 53.5,323.5 54.5,323.5 55.5,323.5C 55.6785,326.216 56.1785,328.883 57,331.5C 59.536,333.962 61.036,336.962 61.5,340.5C 63.0453,341.452 64.712,341.785 66.5,341.5C 66.2471,339.173 66.9137,337.173 68.5,335.5C 70.312,338.353 71.9787,341.353 73.5,344.5C 72.0869,347.661 70.4203,350.661 68.5,353.5C 67.7308,356.115 67.3975,358.781 67.5,361.5C 66.3533,364.947 65.02,368.28 63.5,371.5C 60.6915,371.307 58.0248,370.64 55.5,369.5C 55.5,369.167 55.5,368.833 55.5,368.5C 55.2064,365.246 53.873,362.579 51.5,360.5C 49.8946,357.622 48.5612,354.622 47.5,351.5C 47.2784,345.073 44.9451,339.739 40.5,335.5C 36.734,329.212 33.734,322.545 31.5,315.5C 31.1788,313.952 30.1788,313.285 28.5,313.5C 27.3065,313.97 26.6399,314.97 26.5,316.5C 27.454,332.145 27.7874,347.811 27.5,363.5C 28.675,363.281 29.675,363.614 30.5,364.5C 28.1667,364.833 25.8333,365.167 23.5,365.5C 20.7305,365.471 18.3972,364.805 16.5,363.5C 16.8333,363.5 17.1667,363.5 17.5,363.5C 19.4077,360.558 20.4077,357.224 20.5,353.5C 20.8066,331.538 20.4733,309.538 19.5,287.5C 20.8333,287.5 22.1667,287.5 23.5,287.5C 23.238,286.022 23.5713,284.689 24.5,283.5C 24.8333,283.833 25.1667,284.167 25.5,284.5C 26.4066,287.421 26.7399,290.421 26.5,293.5C 24.8333,293.5 23.1667,293.5 21.5,293.5C 21.5,294.833 21.5,296.167 21.5,297.5C 23.5,297.5 25.5,297.5 27.5,297.5C 27.5,296.167 27.5,294.833 27.5,293.5C 30.0124,293.577 32.0124,292.577 33.5,290.5C 30.8007,288.102 29.4674,285.102 29.5,281.5 Z"/></g>
<g><path style="opacity:1" fill="#7caf73" d="M 87.5,287.5 C 87.8895,291.353 86.5562,294.353 83.5,296.5C 84.0749,293.088 85.4082,290.088 87.5,287.5 Z"/></g>
<g><path style="opacity:1" fill="#7bad73" d="M 39.5,289.5 C 42.1367,291.482 43.47,294.148 43.5,297.5C 40.625,295.751 39.2917,293.085 39.5,289.5 Z"/></g>
<g><path style="opacity:1" fill="#7ab360" d="M 825.5,291.5 C 825.5,292.833 825.5,294.167 825.5,295.5C 823.396,295.201 821.396,295.534 819.5,296.5C 820.689,297.429 822.022,297.762 823.5,297.5C 824.167,300.167 824.833,302.833 825.5,305.5C 826.833,305.5 828.167,305.5 829.5,305.5C 829.5,304.167 829.5,302.833 829.5,301.5C 828.5,301.5 827.5,301.5 826.5,301.5C 826.5,300.167 826.5,298.833 826.5,297.5C 832.095,298.433 834.762,301.767 834.5,307.5C 833.325,307.281 832.325,307.614 831.5,308.5C 832.115,310.116 833.115,311.449 834.5,312.5C 830.219,314.267 826.885,313.267 824.5,309.5C 823.943,311.332 822.943,312.665 821.5,313.5C 820.167,313.5 819.5,312.833 819.5,311.5C 818.524,310.185 817.524,308.852 816.5,307.5C 816.167,316.5 815.833,325.5 815.5,334.5C 815.502,343.859 816.168,352.859 817.5,361.5C 818.234,362.708 818.567,364.041 818.5,365.5C 821.167,365.5 823.833,365.5 826.5,365.5C 826.386,367.718 825.72,369.718 824.5,371.5C 813.5,371.5 802.5,371.5 791.5,371.5C 791.5,368.833 791.5,366.167 791.5,363.5C 794.167,363.5 796.833,363.5 799.5,363.5C 802.247,363.813 804.914,363.48 807.5,362.5C 805.689,338.992 804.856,315.325 805,291.5C 801.67,288.403 802.504,287.07 807.5,287.5C 807.5,286.167 807.5,284.833 807.5,283.5C 802.763,284.187 798.263,284.854 794,285.5C 793.833,285.167 793.667,284.833 793.5,284.5C 794.5,283.833 795.5,283.167 796.5,282.5C 803.803,281.503 811.137,281.169 818.5,281.5C 818.357,283.262 818.691,284.929 819.5,286.5C 821.846,287.855 823.846,289.521 825.5,291.5 Z"/></g>
<g><path style="opacity:1" fill="#509a41" d="M 105.5,281.5 C 110.833,281.5 116.167,281.5 121.5,281.5C 121.123,283.258 120.456,284.925 119.5,286.5C 116.705,286.938 114.372,287.938 112.5,289.5C 111.833,289.5 111.5,289.833 111.5,290.5C 110.732,291.263 110.232,292.263 110,293.5C 109.833,304.833 109.667,316.167 109.5,327.5C 109.501,339.187 110.168,350.52 111.5,361.5C 111.539,362.583 111.873,363.583 112.5,364.5C 115.086,365.48 117.753,365.813 120.5,365.5C 120.5,367.5 120.5,369.5 120.5,371.5C 114.833,371.5 109.167,371.5 103.5,371.5C 108.747,370.764 114.081,369.764 119.5,368.5C 113.228,367.055 107.061,367.389 101,369.5C 100.167,369.167 99.3333,368.833 98.5,368.5C 99.8333,367.833 101.167,367.167 102.5,366.5C 100.995,365.158 100.328,363.492 100.5,361.5C 101.5,361.5 102.5,361.5 103.5,361.5C 103.5,362.833 103.5,364.167 103.5,365.5C 105.167,365.5 106.833,365.5 108.5,365.5C 108.833,340.158 108.5,314.825 107.5,289.5C 105.771,287.149 105.104,284.482 105.5,281.5 Z"/></g>
<g><path style="opacity:0.396" fill="#97c294" d="M 111.5,290.5 C 110.187,314.186 110.187,337.852 111.5,361.5C 110.168,350.52 109.501,339.187 109.5,327.5C 109.667,316.167 109.833,304.833 110,293.5C 110.232,292.263 110.732,291.263 111.5,290.5 Z"/></g>
<g><path style="opacity:1" fill="#6eddf7" d="M 560.5,290.5 C 559.631,292.717 559.298,295.05 559.5,297.5C 558.624,297.631 557.957,297.298 557.5,296.5C 558.309,294.929 558.643,293.262 558.5,291.5C 556.833,291.5 555.167,291.5 553.5,291.5C 553.114,299.398 552.114,299.398 550.5,291.5C 549.534,293.396 549.201,295.396 549.5,297.5C 548.167,297.5 546.833,297.5 545.5,297.5C 545.667,313.503 545.5,329.503 545,345.5C 545.071,352.043 544.238,358.376 542.5,364.5C 542.919,365.672 543.585,366.672 544.5,367.5C 546.523,365.827 548.856,365.16 551.5,365.5C 551.5,366.833 551.5,368.167 551.5,369.5C 548.421,369.26 545.421,369.593 542.5,370.5C 539.906,368.302 536.906,367.302 533.5,367.5C 533.5,368.833 533.5,370.167 533.5,371.5C 532.5,371.5 531.5,371.5 530.5,371.5C 529.527,369.052 529.194,366.385 529.5,363.5C 533.111,363.956 536.444,363.289 539.5,361.5C 540.177,339.798 540.844,318.131 541.5,296.5C 540.675,294.199 540.008,291.865 539.5,289.5C 538.082,287.692 536.082,287.025 533.5,287.5C 533.5,285.5 533.5,283.5 533.5,281.5C 548.833,281.5 564.167,281.5 579.5,281.5C 579.402,286.666 581.735,289.999 586.5,291.5C 586.5,292.833 586.5,294.167 586.5,295.5C 583.661,294.679 581.328,293.013 579.5,290.5C 573.012,289.183 566.678,289.183 560.5,290.5 Z"/></g>
<g><path style="opacity:1" fill="#adebf1" d="M 560.5,290.5 C 564.371,290.185 568.038,290.518 571.5,291.5C 568.102,291.18 564.768,291.513 561.5,292.5C 561.167,293.167 560.833,293.833 560.5,294.5C 561.399,303.567 561.732,312.567 561.5,321.5C 560.833,321.5 560.167,321.5 559.5,321.5C 559.5,313.5 559.5,305.5 559.5,297.5C 559.298,295.05 559.631,292.717 560.5,290.5 Z"/></g>
<g><path style="opacity:0.993" fill="#7cb263" d="M 879.5,289.5 C 877.17,291.542 876.004,294.208 876,297.5C 875.5,322.164 875.333,346.831 875.5,371.5C 872.612,372.01 870.279,371.344 868.5,369.5C 869.833,369.5 871.167,369.5 872.5,369.5C 872.667,348.164 872.5,326.831 872,305.5C 871.781,304.062 871.281,302.729 870.5,301.5C 869.502,310.81 869.168,320.143 869.5,329.5C 868.5,329.5 867.5,329.5 866.5,329.5C 867.051,332.807 867.384,336.14 867.5,339.5C 864.252,339.336 861.252,338.336 858.5,336.5C 857.65,333.427 856.65,330.427 855.5,327.5C 857.861,329.194 859.861,331.194 861.5,333.5C 861.685,335.196 862.519,336.529 864,337.5C 864.827,323.327 864.661,309.327 863.5,295.5C 863.008,293.181 862.008,291.181 860.5,289.5C 858.628,287.938 856.295,286.938 853.5,286.5C 852.691,284.929 852.357,283.262 852.5,281.5C 863.833,281.5 875.167,281.5 886.5,281.5C 886.5,283.5 886.5,285.5 886.5,287.5C 883.612,286.99 881.279,287.656 879.5,289.5 Z"/></g>
<g><path style="opacity:0.651" fill="#69aa6b" d="M 15.5,289.5 C 16.4584,289.953 17.2917,290.619 18,291.5C 18.8293,312.337 18.6626,333.004 17.5,353.5C 17.6666,333.497 17.5,313.497 17,293.5C 16.2086,292.255 15.7086,290.922 15.5,289.5 Z"/></g>
<g><path style="opacity:1" fill="#5aa24e" d="M 43.5,297.5 C 48.443,305.631 52.443,314.297 55.5,323.5C 54.5,323.5 53.5,323.5 52.5,323.5C 52.4287,320.689 51.762,318.022 50.5,315.5C 47.3338,310.259 45.6671,310.925 45.5,317.5C 44.1667,317.5 42.8333,317.5 41.5,317.5C 41.4211,315.334 40.7545,313.334 39.5,311.5C 41.1498,306.897 42.4831,302.231 43.5,297.5 Z"/></g>
<g><path style="opacity:1" fill="#6adbf7" d="M 603.5,313.5 C 603.533,317.102 602.199,320.102 599.5,322.5C 595.303,326.042 590.637,328.709 585.5,330.5C 592.996,341.31 601.33,351.477 610.5,361C 613.683,362.75 617.016,364.083 620.5,365C 619.577,367.041 619.244,369.208 619.5,371.5C 610.833,371.5 602.167,371.5 593.5,371.5C 584.082,360.747 575.415,349.414 567.5,337.5C 566.835,333.14 564.168,331.14 559.5,331.5C 559.791,330.351 560.624,329.684 562,329.5C 563.8,330.378 565.633,331.045 567.5,331.5C 567.5,330.167 567.5,328.833 567.5,327.5C 572.383,327.962 576.383,326.295 579.5,322.5C 578.5,322.167 577.5,321.833 576.5,321.5C 573.247,322.536 569.914,323.203 566.5,323.5C 563.731,323.471 561.397,322.805 559.5,321.5C 560.167,321.5 560.833,321.5 561.5,321.5C 569.772,321.189 577.105,318.523 583.5,313.5C 585.134,308.563 586.134,303.229 586.5,297.5C 591.755,292.229 596.921,292.229 602,297.5C 603.271,302.754 603.771,308.087 603.5,313.5 Z"/></g>
<g><path style="opacity:1" fill="#7eb367" d="M 825.5,291.5 C 826.391,292.261 827.058,293.261 827.5,294.5C 828.325,295.386 829.325,295.719 830.5,295.5C 839.325,305.834 847.658,316.501 855.5,327.5C 853.824,328.183 853.157,329.517 853.5,331.5C 850.311,329.82 846.978,328.486 843.5,327.5C 843.762,326.022 843.429,324.689 842.5,323.5C 840.588,325.657 838.921,327.991 837.5,330.5C 838.921,333.009 840.588,335.343 842.5,337.5C 843.429,338.689 843.762,340.022 843.5,341.5C 838.115,335.758 832.948,329.758 828,323.5C 825.563,320.28 823.397,316.947 821.5,313.5C 822.943,312.665 823.943,311.332 824.5,309.5C 826.885,313.267 830.219,314.267 834.5,312.5C 833.115,311.449 832.115,310.116 831.5,308.5C 832.325,307.614 833.325,307.281 834.5,307.5C 834.762,301.767 832.095,298.433 826.5,297.5C 826.5,298.833 826.5,300.167 826.5,301.5C 827.5,301.5 828.5,301.5 829.5,301.5C 829.5,302.833 829.5,304.167 829.5,305.5C 828.167,305.5 826.833,305.5 825.5,305.5C 824.833,302.833 824.167,300.167 823.5,297.5C 822.022,297.762 820.689,297.429 819.5,296.5C 821.396,295.534 823.396,295.201 825.5,295.5C 825.5,294.167 825.5,292.833 825.5,291.5 Z"/></g>
<g><path style="opacity:0.164" fill="#c6e6b8" d="M 863.5,295.5 C 864.661,309.327 864.827,323.327 864,337.5C 862.519,336.529 861.685,335.196 861.5,333.5C 863.48,321.211 864.147,308.544 863.5,295.5 Z"/></g>
<g><path style="opacity:1" fill="#55a149" d="M 83.5,297.5 C 83.1365,300.563 82.4698,303.563 81.5,306.5C 81.8333,307.5 82.1667,308.5 82.5,309.5C 83.2575,308.189 84.2575,307.689 85.5,308C 85.1459,309.626 85.1459,311.459 85.5,313.5C 82.9885,313.838 80.6552,313.838 78.5,313.5C 77.5,315.5 76.5,317.5 75.5,319.5C 75.8333,320.167 76.1667,320.833 76.5,321.5C 78.3294,319.844 79.6628,317.844 80.5,315.5C 81.1667,318.167 81.8333,320.833 82.5,323.5C 83.0108,321.116 84.0108,319.116 85.5,317.5C 84.8505,319.435 84.5172,321.435 84.5,323.5C 83.6334,327.329 81.9668,330.663 79.5,333.5C 76.8333,334.167 74.1667,334.833 71.5,335.5C 71.5,331.833 71.5,328.167 71.5,324.5C 74.8252,316.197 78.1585,307.864 81.5,299.5C 81.7472,298.287 82.4138,297.62 83.5,297.5 Z"/></g>
<g><path style="opacity:0.82" fill="#7dae77" d="M 87.5,311.5 C 88.1667,311.5 88.8333,311.5 89.5,311.5C 89.5,312.167 89.5,312.833 89.5,313.5C 88.2105,317.044 86.5439,320.377 84.5,323.5C 84.5172,321.435 84.8505,319.435 85.5,317.5C 86.4582,315.698 87.1249,313.698 87.5,311.5 Z"/></g>
<g><path style="opacity:0.024" fill="#cae2cf" d="M 90.5,361.5 C 90.8297,345.325 90.4964,329.325 89.5,313.5C 89.5,312.833 89.5,312.167 89.5,311.5C 89.9867,310.527 90.4867,309.527 91,308.5C 91.8286,326.338 91.6619,344.005 90.5,361.5 Z"/></g>
<g><path style="opacity:1" fill="#529844" d="M 80.5,371.5 C 80.1667,371.5 79.8333,371.5 79.5,371.5C 79.5,368.833 79.5,366.167 79.5,363.5C 83.347,363.619 87.0137,362.953 90.5,361.5C 91.6619,344.005 91.8286,326.338 91,308.5C 90.4867,309.527 89.9867,310.527 89.5,311.5C 88.8333,311.5 88.1667,311.5 87.5,311.5C 87.5,310.167 87.5,308.833 87.5,307.5C 90.0115,307.162 92.3448,307.162 94.5,307.5C 97.0591,311.248 97.7258,315.248 96.5,319.5C 95.5344,317.604 95.2011,315.604 95.5,313.5C 94.5,313.5 93.5,313.5 92.5,313.5C 92.1816,329.881 92.5149,346.214 93.5,362.5C 93.1667,363.167 92.8333,363.833 92.5,364.5C 88.5546,365.491 84.5546,365.824 80.5,365.5C 80.5,367.5 80.5,369.5 80.5,371.5 Z"/></g>
<g><path style="opacity:0.157" fill="#bdd9b7" d="M 819.5,311.5 C 818.5,311.5 817.5,311.5 816.5,311.5C 816.21,328.201 816.543,344.868 817.5,361.5C 816.168,352.859 815.502,343.859 815.5,334.5C 815.833,325.5 816.167,316.5 816.5,307.5C 817.524,308.852 818.524,310.185 819.5,311.5 Z"/></g>
<g><path style="opacity:1" fill="#79b460" d="M 868.5,369.5 C 866.299,367.496 864.299,365.163 862.5,362.5C 861.626,360.253 861.292,357.92 861.5,355.5C 858.583,355.635 855.916,354.968 853.5,353.5C 852.009,349.334 849.676,345.667 846.5,342.5C 845.675,341.614 844.675,341.281 843.5,341.5C 843.762,340.022 843.429,338.689 842.5,337.5C 840.588,335.343 838.921,333.009 837.5,330.5C 838.921,327.991 840.588,325.657 842.5,323.5C 843.429,324.689 843.762,326.022 843.5,327.5C 846.978,328.486 850.311,329.82 853.5,331.5C 853.157,329.517 853.824,328.183 855.5,327.5C 856.65,330.427 857.65,333.427 858.5,336.5C 861.252,338.336 864.252,339.336 867.5,339.5C 867.384,336.14 867.051,332.807 866.5,329.5C 867.5,329.5 868.5,329.5 869.5,329.5C 869.168,320.143 869.502,310.81 870.5,301.5C 871.281,302.729 871.781,304.062 872,305.5C 872.5,326.831 872.667,348.164 872.5,369.5C 871.167,369.5 869.833,369.5 868.5,369.5 Z"/></g>
<g><path style="opacity:1" fill="#69a85d" d="M 55.5,323.5 C 58.5936,328.687 61.4269,334.02 64,339.5C 66.2316,334.265 68.7316,329.265 71.5,324.5C 71.5,328.167 71.5,331.833 71.5,335.5C 74.1667,334.833 76.8333,334.167 79.5,333.5C 76.4428,343.37 72.4428,352.704 67.5,361.5C 67.3975,358.781 67.7308,356.115 68.5,353.5C 70.4203,350.661 72.0869,347.661 73.5,344.5C 71.9787,341.353 70.312,338.353 68.5,335.5C 66.9137,337.173 66.2471,339.173 66.5,341.5C 64.712,341.785 63.0453,341.452 61.5,340.5C 61.036,336.962 59.536,333.962 57,331.5C 56.1785,328.883 55.6785,326.216 55.5,323.5 Z"/></g>
<g><path style="opacity:0.574" fill="#79ab70" d="M 28.5,313.5 C 30.1788,313.285 31.1788,313.952 31.5,315.5C 30.7611,315.369 30.0944,315.536 29.5,316C 29.2032,330.987 29.5366,346.153 30.5,361.5C 28.5152,345.868 27.8486,329.868 28.5,313.5 Z"/></g>
<g><path style="opacity:1" fill="#75a86c" d="M 40.5,335.5 C 44.9451,339.739 47.2784,345.073 47.5,351.5C 44.6554,346.469 42.3221,341.136 40.5,335.5 Z"/></g>
<g><path style="opacity:1" fill="#a5e2ec" d="M 559.5,331.5 C 564.168,331.14 566.835,333.14 567.5,337.5C 565.832,336.156 564.165,334.823 562.5,333.5C 561.833,333.833 561.167,334.167 560.5,334.5C 561.157,343.373 561.491,352.373 561.5,361.5C 562.552,361.351 563.552,361.517 564.5,362C 564.167,362.333 563.833,362.667 563.5,363C 566.482,363.498 569.482,363.665 572.5,363.5C 572.658,366.902 572.324,370.236 571.5,373.5C 568.833,373.5 566.167,373.5 563.5,373.5C 557.833,372.167 552.167,372.167 546.5,373.5C 542.833,373.5 539.167,373.5 535.5,373.5C 535.167,372.167 534.833,372.167 534.5,373.5C 533.167,373.5 531.833,373.5 530.5,373.5C 530.5,372.833 530.5,372.167 530.5,371.5C 531.5,371.5 532.5,371.5 533.5,371.5C 545.518,371.832 557.518,371.499 569.5,370.5C 570.309,368.929 570.643,367.262 570.5,365.5C 566.653,365.619 562.986,364.953 559.5,363.5C 559.5,352.833 559.5,342.167 559.5,331.5 Z"/></g>
<g><path style="opacity:1" fill="#98bc88" d="M 843.5,341.5 C 844.675,341.281 845.675,341.614 846.5,342.5C 849.676,345.667 852.009,349.334 853.5,353.5C 849.496,350.154 846.163,346.154 843.5,341.5 Z"/></g>
<g><path style="opacity:1" fill="#4f9b43" d="M 29.5,281.5 C 29.4674,285.102 30.8007,288.102 33.5,290.5C 32.0124,292.577 30.0124,293.577 27.5,293.5C 27.5,294.833 27.5,296.167 27.5,297.5C 25.5,297.5 23.5,297.5 21.5,297.5C 21.5,296.167 21.5,294.833 21.5,293.5C 23.1667,293.5 24.8333,293.5 26.5,293.5C 26.7399,290.421 26.4066,287.421 25.5,284.5C 25.1667,284.167 24.8333,283.833 24.5,283.5C 23.5713,284.689 23.238,286.022 23.5,287.5C 22.1667,287.5 20.8333,287.5 19.5,287.5C 20.4733,309.538 20.8066,331.538 20.5,353.5C 20.4077,357.224 19.4077,360.558 17.5,363.5C 17.5,361.167 17.5,358.833 17.5,356.5C 17.5,355.5 17.5,354.5 17.5,353.5C 18.6626,333.004 18.8293,312.337 18,291.5C 17.2917,290.619 16.4584,289.953 15.5,289.5C 13.1617,287.96 10.4951,287.294 7.5,287.5C 7.5,286.167 7.5,284.833 7.5,283.5C 14.7371,282.013 22.0704,281.346 29.5,281.5 Z"/></g>
<g><path style="opacity:1" fill="#61dafb" d="M 559.5,297.5 C 559.5,305.5 559.5,313.5 559.5,321.5C 561.397,322.805 563.731,323.471 566.5,323.5C 569.914,323.203 573.247,322.536 576.5,321.5C 577.5,321.833 578.5,322.167 579.5,322.5C 576.383,326.295 572.383,327.962 567.5,327.5C 567.5,328.833 567.5,330.167 567.5,331.5C 565.633,331.045 563.8,330.378 562,329.5C 560.624,329.684 559.791,330.351 559.5,331.5C 559.5,342.167 559.5,352.833 559.5,363.5C 562.986,364.953 566.653,365.619 570.5,365.5C 570.643,367.262 570.309,368.929 569.5,370.5C 557.518,371.499 545.518,371.832 533.5,371.5C 533.5,370.167 533.5,368.833 533.5,367.5C 536.906,367.302 539.906,368.302 542.5,370.5C 545.421,369.593 548.421,369.26 551.5,369.5C 551.5,368.167 551.5,366.833 551.5,365.5C 548.856,365.16 546.523,365.827 544.5,367.5C 543.585,366.672 542.919,365.672 542.5,364.5C 544.238,358.376 545.071,352.043 545,345.5C 545.5,329.503 545.667,313.503 545.5,297.5C 546.833,297.5 548.167,297.5 549.5,297.5C 549.201,295.396 549.534,293.396 550.5,291.5C 552.114,299.398 553.114,299.398 553.5,291.5C 555.167,291.5 556.833,291.5 558.5,291.5C 558.643,293.262 558.309,294.929 557.5,296.5C 557.957,297.298 558.624,297.631 559.5,297.5 Z"/></g>
<g><path style="opacity:1" fill="#8db379" d="M 853.5,353.5 C 855.916,354.968 858.583,355.635 861.5,355.5C 861.292,357.92 861.626,360.253 862.5,362.5C 864.299,365.163 866.299,367.496 868.5,369.5C 870.279,371.344 872.612,372.01 875.5,371.5C 875.5,372.167 875.5,372.833 875.5,373.5C 873.167,373.5 870.833,373.5 868.5,373.5C 862.706,367.38 857.706,360.714 853.5,353.5 Z"/></g>
<g><path style="opacity:1" fill="#79aa70" d="M 17.5,356.5 C 17.5,358.833 17.5,361.167 17.5,363.5C 17.1667,363.5 16.8333,363.5 16.5,363.5C 12.7947,364.35 9.46142,365.684 6.5,367.5C 6.16667,367.5 5.83333,367.5 5.5,367.5C 5.5,366.5 5.5,365.5 5.5,364.5C 9.18744,363.776 12.8541,362.776 16.5,361.5C 16.2155,359.585 16.5489,357.919 17.5,356.5 Z"/></g>
<g><path style="opacity:1" fill="#79ac72" d="M 111.5,361.5 C 114.584,363.101 117.917,363.768 121.5,363.5C 121.5,366.167 121.5,368.833 121.5,371.5C 121.167,371.5 120.833,371.5 120.5,371.5C 120.5,369.5 120.5,367.5 120.5,365.5C 117.753,365.813 115.086,365.48 112.5,364.5C 111.873,363.583 111.539,362.583 111.5,361.5 Z"/></g>
<g><path style="opacity:1" fill="#8fb280" d="M 817.5,361.5 C 820.78,362.865 824.114,363.865 827.5,364.5C 827.5,366.833 827.5,369.167 827.5,371.5C 826.5,371.5 825.5,371.5 824.5,371.5C 825.72,369.718 826.386,367.718 826.5,365.5C 823.833,365.5 821.167,365.5 818.5,365.5C 818.567,364.041 818.234,362.708 817.5,361.5 Z"/></g>
<g><path style="opacity:1" fill="#539a47" d="M 28.5,313.5 C 27.8486,329.868 28.5152,345.868 30.5,361.5C 32.3224,361.831 33.9891,362.498 35.5,363.5C 36.9187,364.451 38.5853,364.784 40.5,364.5C 40.8016,367.059 40.4682,369.393 39.5,371.5C 39.5,370.167 39.5,368.833 39.5,367.5C 28.5,367.5 17.5,367.5 6.5,367.5C 9.46142,365.684 12.7947,364.35 16.5,363.5C 18.3972,364.805 20.7305,365.471 23.5,365.5C 25.8333,365.167 28.1667,364.833 30.5,364.5C 29.675,363.614 28.675,363.281 27.5,363.5C 27.7874,347.811 27.454,332.145 26.5,316.5C 26.6399,314.97 27.3065,313.97 28.5,313.5 Z"/></g>
<g><path style="opacity:0.529" fill="#9bc394" d="M 51.5,360.5 C 53.873,362.579 55.2064,365.246 55.5,368.5C 53.6378,366.109 52.3045,363.442 51.5,360.5 Z"/></g>
<g><path style="opacity:0.278" fill="#969799" d="M 279.5,364.5 C 277.735,365.461 275.735,365.795 273.5,365.5C 273.5,367.833 273.5,370.167 273.5,372.5C 272.527,370.052 272.194,367.385 272.5,364.5C 274.833,364.5 277.167,364.5 279.5,364.5 Z"/></g>
<g><path style="opacity:0.373" fill="#9cb798" d="M 35.5,363.5 C 37.5,363.5 39.5,363.5 41.5,363.5C 41.5,366.5 41.5,369.5 41.5,372.5C 29.9877,372.172 18.6544,372.505 7.5,373.5C 6.83333,373.5 6.16667,373.5 5.5,373.5C 4.22482,370.396 4.22482,367.396 5.5,364.5C 5.5,365.5 5.5,366.5 5.5,367.5C 5.5,368.833 5.5,370.167 5.5,371.5C 16.8333,371.5 28.1667,371.5 39.5,371.5C 40.4682,369.393 40.8016,367.059 40.5,364.5C 38.5853,364.784 36.9187,364.451 35.5,363.5 Z"/></g>
<g><path style="opacity:1" fill="#4a9f3c" d="M 5.5,367.5 C 5.83333,367.5 6.16667,367.5 6.5,367.5C 17.5,367.5 28.5,367.5 39.5,367.5C 39.5,368.833 39.5,370.167 39.5,371.5C 28.1667,371.5 16.8333,371.5 5.5,371.5C 5.5,370.167 5.5,368.833 5.5,367.5 Z"/></g>
<g><path style="opacity:1" fill="#a0c79b" d="M 55.5,369.5 C 58.0248,370.64 60.6915,371.307 63.5,371.5C 63.1667,372.167 62.8333,372.833 62.5,373.5C 60.8333,373.5 59.1667,373.5 57.5,373.5C 56.3995,372.395 55.7329,371.062 55.5,369.5 Z"/></g>
<g><path style="opacity:0.404" fill="#9ebd9b" d="M 79.5,371.5 C 79.8333,371.5 80.1667,371.5 80.5,371.5C 88.1667,371.5 95.8333,371.5 103.5,371.5C 109.167,371.5 114.833,371.5 120.5,371.5C 120.833,371.5 121.167,371.5 121.5,371.5C 121.5,372.167 121.5,372.833 121.5,373.5C 120.167,373.5 118.833,373.5 117.5,373.5C 107.5,372.167 97.5,372.167 87.5,373.5C 86.8333,373.5 86.1667,373.5 85.5,373.5C 84.8333,372.167 84.1667,372.167 83.5,373.5C 82.1667,373.5 80.8333,373.5 79.5,373.5C 79.5,372.833 79.5,372.167 79.5,371.5 Z"/></g>
<g><path style="opacity:0.296" fill="#afc7aa" d="M 827.5,364.5 C 828.473,366.948 828.806,369.615 828.5,372.5C 815.989,372.829 803.655,372.495 791.5,371.5C 802.5,371.5 813.5,371.5 824.5,371.5C 825.5,371.5 826.5,371.5 827.5,371.5C 827.5,369.167 827.5,366.833 827.5,364.5 Z"/></g>
<g><path style="opacity:0.071" fill="#c5f3f5" d="M 593.5,371.5 C 602.167,371.5 610.833,371.5 619.5,371.5C 619.5,372.167 619.5,372.833 619.5,373.5C 611.167,373.5 602.833,373.5 594.5,373.5C 594.167,372.833 593.833,372.167 593.5,371.5 Z"/></g>
</svg>
